<svg id="Layer_1" data-name="Layer 1" xmlns="http://www.w3.org/2000/svg" xmlns:xlink="http://www.w3.org/1999/xlink" viewBox="0 0 196 84"><defs><style>.cls-1{fill:none;}.cls-2{clip-path:url(#clip-path);}.cls-3,.cls-5{font-size:29.65px;}.cls-3,.cls-5,.cls-7{fill:#2b4d6f;}.cls-3{font-family:FuturaBT-Light, Futura Lt BT;font-weight:300;}.cls-4{letter-spacing:-0.07em;}.cls-5{font-family:FuturaBT-Heavy, Futura Hv BT;font-weight:800;}.cls-6{letter-spacing:-0.02em;}.cls-8{fill:#f59120;}</style><clipPath id="clip-path"><rect class="cls-1" x="254.9" y="-12.37" width="199.1" height="100.37"/></clipPath></defs><title>afl</title><g class="cls-2"><image width="1338" height="1294" transform="translate(-444.41 -435.25) scale(0.82)" xlink:href="../../Downloads/global-sprite@x2.png"/></g><text class="cls-3" transform="translate(69.12 35.59)"><tspan class="cls-4">F</tspan><tspan x="12.7" y="0">AN</tspan><tspan class="cls-4" x="52.5" y="0">T</tspan><tspan x="65.08" y="0">ASY</tspan></text><text class="cls-5" transform="translate(69.12 70.22)">LE<tspan class="cls-6" x="31.55" y="0">A</tspan><tspan x="52.16" y="0">GUE</tspan></text><path class="cls-7" d="M32.25,44.42,43.62,25.54h.14l2.39,15.61A70.21,70.21,0,0,1,56.74,39.8l-4.32-26H39.62L16.16,53.47C22,49.37,26.6,46.43,32.25,44.42Z"/><path class="cls-7" d="M6,70.67H18.65s4.73-20.06,29.11-20.06l3.3,20.06H61.87L58.39,49.73S17.18,39.8,6,70.67Z"/><path class="cls-8" d="M66.75,37.52S31,34.48,8.35,59.16c0,0,.51-.48,1.46-1.29-1,.81-1.46,1.29-1.46,1.29C31.59,40.27,61.1,46.32,61.1,46.32l2.53-4Z"/></svg>