<svg id="Layer_1" data-name="Layer 1" xmlns="http://www.w3.org/2000/svg" xmlns:xlink="http://www.w3.org/1999/xlink" viewBox="0 0 196 84"><defs><style>.cls-1{fill:none;}.cls-2{clip-path:url(#clip-path);}.cls-3{fill:#2b4d6f;}.cls-4{fill:#f59120;}</style><clipPath id="clip-path"><rect class="cls-1" x="254.9" y="-12.37" width="199.1" height="100.37"/></clipPath></defs><title>afl</title><g class="cls-2"><image width="1338" height="1294" transform="translate(-444.41 -435.25) scale(0.82)" xlink:href="../../Downloads/global-sprite@x2.png"/></g><path class="cls-3" d="M71.75,35.59V14.4h10.5v1.81H73.68v6.63h8.25v1.81H73.68V35.59Z"/><path class="cls-3" d="M81.55,35.59l9.31-22,8.92,22h-2.1L95,28.41H86.32l-2.81,7.18ZM87,26.76h7.38l-3.62-9.22Z"/><path class="cls-3" d="M102.15,35.59V13.5l15,17.73V14.4H119V36.21L104,18.45V35.59Z"/><path class="cls-3" d="M128,35.59V16.21h-5.83V14.4h13.61v1.81h-5.85V35.59Z"/><path class="cls-3" d="M133.93,35.59l9.31-22,8.92,22h-2.1l-2.71-7.18H138.7l-2.81,7.18Zm5.42-8.83h7.38l-3.62-9.22Z"/><path class="cls-3" d="M152.91,32l1.65-.88a4.53,4.53,0,0,0,1.6,2.42,4.36,4.36,0,0,0,2.73.86A4.12,4.12,0,0,0,162,33.25,4.57,4.57,0,0,0,163.16,30a4.13,4.13,0,0,0-.76-2.55,10.17,10.17,0,0,0-3.26-2.34,14.47,14.47,0,0,1-4.26-3A4.75,4.75,0,0,1,153.82,19a4.78,4.78,0,0,1,1.53-3.68,5.58,5.58,0,0,1,4-1.42,5.46,5.46,0,0,1,2.77.67,5,5,0,0,1,1.92,2l-1.49.9a3.26,3.26,0,0,0-1.31-1.39,4,4,0,0,0-2-.48,3.37,3.37,0,0,0-2.49.92,3.33,3.33,0,0,0-.93,2.48c0,1.49,1.22,2.88,3.68,4.16l1,.54a10.72,10.72,0,0,1,3.62,2.81A5.92,5.92,0,0,1,165,30a5.76,5.76,0,0,1-6.2,6.2,6,6,0,0,1-3.56-1A6.75,6.75,0,0,1,152.91,32Z"/><path class="cls-3" d="M173.85,35.59V25.83l-7-11.43h2.32l5.69,9.71,5.71-9.71h2.21l-7,11.43v9.76Z"/><path class="cls-3" d="M71.49,70.22V49H76V66.37h7.24v3.85Z"/><path class="cls-3" d="M86.11,70.22V49H98.59v3.82h-8V57.2h8v3.85h-8v5.32h8v3.85Z"/><path class="cls-3" d="M100.52,70.22,108.58,49h5.19L122,70.22h-5.16l-1.72-4.51h-8.21l-1.48,4.51ZM114,62.15l-2.37-6.84a9.23,9.23,0,0,1-.26-1.05c-.11-.49-.22-1.09-.34-1.81-.12.69-.24,1.3-.36,1.85s-.2.91-.26,1.09l-2.29,6.76Z"/><path class="cls-3" d="M134.18,59h9.65a2.59,2.59,0,0,1,0,.41c0,.14,0,.36,0,.66a11,11,0,0,1-2.72,7.72,9.14,9.14,0,0,1-7,3A11.14,11.14,0,0,1,126,67.63a10.75,10.75,0,0,1-3.2-8A10.64,10.64,0,0,1,126,51.69a11.12,11.12,0,0,1,8.12-3.15,10.47,10.47,0,0,1,4.75,1.09,11.49,11.49,0,0,1,3.85,3.24l-3.05,2.26a7.61,7.61,0,0,0-2.41-2.05,6.42,6.42,0,0,0-2.91-.63,6.66,6.66,0,0,0-5,2,7.18,7.18,0,0,0-1.88,5.22,7.25,7.25,0,0,0,1.88,5.2,6.55,6.55,0,0,0,4.93,2,5.83,5.83,0,0,0,3.62-1A3.26,3.26,0,0,0,139.27,63v-.23h-5.09Z"/><path class="cls-3" d="M165.7,49V62.21q0,4.32-2.28,6.44c-1.51,1.42-3.8,2.13-6.85,2.13s-5.4-.71-6.92-2.13-2.27-3.56-2.27-6.44V49h4.5V61.5a5.88,5.88,0,0,0,1.16,4,4.36,4.36,0,0,0,3.46,1.32A4.46,4.46,0,0,0,160,65.44a5.76,5.76,0,0,0,1.18-3.94V49Z"/><path class="cls-3" d="M170.39,70.22V49h12.48v3.82h-8V57.2h8v3.85h-8v5.32h8v3.85Z"/><path class="cls-3" d="M32.25,44.42,43.62,25.54h.14l2.39,15.61A70.21,70.21,0,0,1,56.74,39.8l-4.32-26H39.62L16.16,53.47C22,49.37,26.6,46.43,32.25,44.42Z"/><path class="cls-3" d="M6,70.67H18.65s4.73-20.06,29.11-20.06l3.3,20.06H61.87L58.39,49.73S17.18,39.8,6,70.67Z"/><path class="cls-4" d="M66.75,37.52S31,34.48,8.35,59.16c0,0,.51-.48,1.46-1.29-1,.81-1.46,1.29-1.46,1.29C31.59,40.27,61.1,46.32,61.1,46.32l2.53-4Z"/></svg>