<svg id="ICC_Cricket_World_Cup_2019_logo" xmlns="http://www.w3.org/2000/svg" width="159.9" height="200" viewBox="0 0 159.9 200">
  <path id="Path_1" data-name="Path 1" d="M149.8,171.6h-4.3a2.062,2.062,0,0,1-1.3-.3,1.445,1.445,0,0,1-.3-1.1v-2.4h4.3c.3,0,.3-.1.3-.3v-1c0-.3-.1-.3-.3-.3h-4.3V163h5.7c.3,0,.3-.1.3-.3v-1.1c0-.3-.1-.3-.3-.3h-9.5a.1.1,0,0,0-.1.1l.1.1a7.271,7.271,0,0,0,.8.9c.1.2.2.3.2.5v7.7a2.55,2.55,0,0,0,.5,1.9,3.024,3.024,0,0,0,2.3.7h5.9c.3,0,.3-.1.3-.3v-1C150.1,171.7,150.1,171.6,149.8,171.6Z" fill="#ff0045"/>
  <path id="Path_2" data-name="Path 2" d="M9.8,171.6H5.5a2.062,2.062,0,0,1-1.3-.3,1.445,1.445,0,0,1-.3-1.1v-2.4H8.2c.3,0,.3-.1.3-.3v-1c0-.3-.1-.3-.3-.3H4V163H9.7c.3,0,.3-.1.3-.3v-1.1c0-.3-.1-.3-.3-.3H.1a.1.1,0,0,0-.1.1l.1.1a7.271,7.271,0,0,0,.8.9c.1.2.2.3.2.5v7.7a2.55,2.55,0,0,0,.5,1.9,3.024,3.024,0,0,0,2.3.7H9.8c.3,0,.3-.1.3-.3v-1Q10.25,171.6,9.8,171.6Z" fill="#ff0045"/>
  <path id="Path_3" data-name="Path 3" d="M61.5,197.2H51.6c2-1.9,4.3-4.3,6.1-6.2,2.6-2.7,3.7-4.7,3.7-7.1,0-3.3-2.7-5.9-7.8-5.9a14.741,14.741,0,0,0-5.9,1.1.9.9,0,0,0-.7,1v1.6a.265.265,0,0,0,.3.3,3.686,3.686,0,0,0,.9-.4,11.617,11.617,0,0,1,5.2-1.6c2.2,0,3.9,1.3,3.9,3.5,0,1.5-.7,3.1-2.9,5.5-2.1,2.2-5.8,6.1-7.5,7.9a1.346,1.346,0,0,0-.5,1.2v.6c0,.5.1.6.6.6H61.5c.5,0,.6-.1.6-.6v-1.1C62.1,197.3,62,197.2,61.5,197.2Z" fill="#ff0045"/>
  <path id="Path_4" data-name="Path 4" d="M91.6,178.6H86.8a.265.265,0,0,0-.3.3c0,.1,0,.1.1.2.4.4,1.1,1.1,1.5,1.6.3.3.3.4.3.9v17.3c0,.5.1.6.7.6h2.7c.5,0,.7-.1.7-.6V179.3C92.3,178.8,92.2,178.6,91.6,178.6Z" fill="#ff0045"/>
  <path id="Path_5" data-name="Path 5" d="M22.2,161.3H21c-.3,0-.3.1-.3.3v7.5c-1.9-2.1-5.5-6.3-6.5-7.3-.4-.5-.5-.5-.9-.5H11.8c-.3,0-.4.1-.4.3v11.2c0,.3.1.3.3.3h1.1c.3,0,.3-.1.3-.3v-7.7c1.9,2.1,4.9,5.6,6.7,7.5.4.5.5.5.9.5H22c.3,0,.4-.1.4-.3V161.6C22.5,161.4,22.4,161.3,22.2,161.3Z" fill="#ff0045"/>
  <path id="Path_6" data-name="Path 6" d="M46.9,172.9q.3-.75.9-2.1h5.3a21.718,21.718,0,0,0,1,2.1c.1.3.2.3.5.3h2.5c.2,0,.3-.1.3-.2l-.1-.1c-2.2-4.5-4.3-8.8-5.5-11.1-.2-.5-.3-.5-.9-.5H48.2a.1.1,0,0,0-.1.1l.1.1c.3.3.6.7.8.9.2.3.3.3.3.5,0,.1,0,.1-.1.2-.9,2.1-2.6,5.7-3.9,8.6H42a1.737,1.737,0,0,1-1.2-.3c-.3-.2-.3-.5-.3-1.1v-8.7c0-.3-.1-.3-.3-.3H36.7a.1.1,0,0,0-.1.1l.1.1c.1.1.7.8.8.9a.9.9,0,0,1,.1.5v7.5a2.319,2.319,0,0,0,.7,2,3.217,3.217,0,0,0,2.2.6h6C46.7,173.2,46.8,173.2,46.9,172.9Zm3.5-7.9c.6,1.3,1.3,2.8,2,4.2H48.5C49.2,167.7,49.8,166.2,50.4,165Z" fill="#ff0045"/>
  <path id="Path_7" data-name="Path 7" d="M74.3,178c-7.5,0-11.2,5.5-11.2,11s3.7,11,11.2,11,11.2-5.5,11.2-11A10.7,10.7,0,0,0,74.3,178Zm0,19.9c-4.3,0-6.7-3.9-6.7-8.9s2.4-8.9,6.7-8.9S81,183.9,81,189C81,194,78.6,197.9,74.3,197.9Z" fill="#ff0045"/>
  <path id="Path_8" data-name="Path 8" d="M139.6,171.7h-3.1a1.737,1.737,0,0,1-1.2-.3c-.3-.2-.3-.5-.3-1.1v-8.7c0-.3-.1-.3-.3-.3h-3.5a.1.1,0,0,0-.1.1l.1.1c.1.1.7.8.8.9.1.2.2.3.2.5v7.6a2.319,2.319,0,0,0,.7,2,3.4,3.4,0,0,0,2.2.6H140c.3,0,.3-.1.3-.3v-1C140,171.8,139.9,171.7,139.6,171.7Z" fill="#ff0045"/>
  <path id="Path_9" data-name="Path 9" d="M103.7,178c-5.1,0-8.9,2.9-8.9,7.3,0,4,3.4,6.8,8.1,6.8a10.231,10.231,0,0,0,5.9-1.9c-.9,4.5-4.9,6.9-10.6,7.2-.5,0-.6.1-.6.5V199c0,.5.3.5,1.8.5,8.7,0,14.1-4.9,14.1-11.6C113.5,182,110,178,103.7,178Zm4,10.5a5.525,5.525,0,0,1-3.6,1.1c-3.1,0-5-1.7-5-4.7a4.488,4.488,0,0,1,4.7-4.8,5.179,5.179,0,0,1,4.1,1.9,6.466,6.466,0,0,1,1.2,3.6A3.86,3.86,0,0,1,107.7,188.5Z" fill="#ff0045"/>
  <path id="Path_10" data-name="Path 10" d="M157.2,166.4c-.7-.4-1-.5-1.7-.9-1.5-.7-1.7-1.1-1.7-1.6,0-.7.9-1.2,2.1-1.2a6.068,6.068,0,0,1,3,.9c.1.1.1.1.2.1s.2-.1.2-.3v-1.2a.548.548,0,0,0-.4-.6,10.068,10.068,0,0,0-3.1-.5c-2.6,0-4.5,1.2-4.5,3.4a3.5,3.5,0,0,0,2.2,3.1,21.162,21.162,0,0,0,2.1,1.1c1.3.7,1.7,1.1,1.7,1.7,0,.9-.9,1.5-2,1.5a6.706,6.706,0,0,1-3.6-1.2c-.1-.1-.1-.1-.2-.1s-.2.1-.2.3v1.3c0,.4.1.5.6.7a8.8,8.8,0,0,0,3.5.6c2.8,0,4.5-1.5,4.5-3.7C159.8,168.4,159.2,167.4,157.2,166.4Z" fill="#ff0045"/>
  <path id="Path_11" data-name="Path 11" d="M121.1,161.4c0-.1-.1-.1-.2-.1h-3.2a.1.1,0,0,0-.1.1l.1.1a8.7,8.7,0,0,1,.9,1.1c.1.1.1.1.1.2s0,.1-.1.1c-.5,1.2-2,4.5-2.9,6.6-1.4-3.2-2.6-6.1-3.3-7.7-.2-.4-.3-.5-.9-.5h-2.3c-.2,0-.3.1-.3.2l.1.2c.5,1,1.2,2.6,1.5,3.3l-1.9,4.6c-1.2-2.8-2.8-6.5-3.4-7.7-.1-.4-.3-.5-.8-.5H102c-.2,0-.3.1-.3.2l.1.2c.6,1.3,4.1,9.1,5.1,11.3.1.2.2.3.4.3h1.2c.2,0,.3-.1.4-.3.7-1.5,1.8-4.2,2.5-5.9.9,2,2.1,4.7,2.7,5.9.1.2.2.3.4.3h1.2c.2,0,.3-.1.4-.3.9-2.2,3.9-8.9,5-11.3C121.1,161.6,121.1,161.5,121.1,161.4Z" fill="#ff0045"/>
  <path id="Path_12" data-name="Path 12" d="M125.5,161.6a.462.462,0,0,0-.5-.3h-1a.462.462,0,0,0-.5.3c-.4.9-4.7,10.4-5.1,11.3,0,.1-.1.1-.1.2s.1.2.3.2h1.2a.462.462,0,0,0,.5-.3,22.021,22.021,0,0,0,.9-2.1h5.3c.4.8.7,1.5,1,2.1.1.3.2.3.5.3h2.6c.2,0,.3-.1.3-.2l-.1-.1C129.1,168.8,126.6,163.8,125.5,161.6Zm-3.4,7.6c.6-1.3,1.2-2.7,1.9-4.2.6,1.3,1.3,2.8,2,4.2Z" fill="#ff0045"/>
  <path id="Path_13" data-name="Path 13" d="M35.4,166.8H31a.349.349,0,0,0-.2.1.1.1,0,0,0,.1.1c.5.3,1.1.8,1.7,1.2a.588.588,0,0,1,.2.5v2.1a.588.588,0,0,1-.2.5,3.557,3.557,0,0,1-1.9.5,3.16,3.16,0,0,1-2.9-1.5,5.6,5.6,0,0,1-.9-3.3c0-2.9,1.7-4.6,4.2-4.6a6.156,6.156,0,0,1,3.5,1.2l.1.1c.1,0,.2-.1.2-.3V162c0-.3-.1-.3-.3-.5a12.584,12.584,0,0,0-3.8-.6c-4.3,0-7.1,2.5-7.1,6.3a5.619,5.619,0,0,0,2.1,4.6,7.634,7.634,0,0,0,4.8,1.5,12.193,12.193,0,0,0,4.9-1.1c.2-.1.2-.2.2-.4V167C35.8,166.8,35.7,166.8,35.4,166.8Z" fill="#ff0045"/>
  <path id="Path_14" data-name="Path 14" d="M91.8,174a6.433,6.433,0,0,0,4.1-1.5,9.959,9.959,0,0,0,1.1,1,.745.745,0,0,0,.7.3h2.9a.215.215,0,0,0,.2-.2c0-.1,0-.1-.1-.2-1-.9-2.1-1.9-3.2-3a22.558,22.558,0,0,0,1.1-2.2h1.1a.1.1,0,0,0,.1-.1V168c-.4-.9-1.3-2.8-1.7-3.7l-.1-.1a.1.1,0,0,0-.1.1,10.6,10.6,0,0,1-1.5,5.1c-1.4-1.3-2.7-2.6-3.7-3.5-1.5-1.5-1.9-1.9-1.9-2.5,0-1,.9-1.5,1.9-1.5,1.1,0,1.9.5,1.9,1.1,0,.1-.1.2-.3.5a1.329,1.329,0,0,0-.3.7,2.3,2.3,0,0,0,.3.9,3.013,3.013,0,0,1,.3,1.2.1.1,0,0,0,.1.1c.1,0,.1,0,.2-.1a3.454,3.454,0,0,0,1.4-2.7c0-2.1-1.5-3.3-3.8-3.3a4.764,4.764,0,0,0-2.9.9,3.229,3.229,0,0,0-1.3,2.7,3.337,3.337,0,0,0,.9,2.3,3.92,3.92,0,0,0-2.7,3.5C86.6,172.2,88.7,174,91.8,174Zm-1.2-6.5c1.1,1.1,2.6,2.5,4,3.8a3.891,3.891,0,0,1-2.3.7,2.617,2.617,0,0,1-2.8-2.5A3.348,3.348,0,0,1,90.6,167.5Z" fill="#ff0045"/>
  <path id="Path_15" data-name="Path 15" d="M71.7,173.2h4.1a7.811,7.811,0,0,0,5.3-1.6,6.043,6.043,0,0,0,1.8-4.3,5.871,5.871,0,0,0-1.8-4.3,7.811,7.811,0,0,0-5.3-1.6h-4c-.3,0-.4.1-.4.3V173C71.3,173.2,71.4,173.2,71.7,173.2Zm2.6-10.4h1c1.7,0,2.7.3,3.3,1.1a5.8,5.8,0,0,1,0,6.8,4.357,4.357,0,0,1-3.3,1.1h-1Z" fill="#ff0045"/>
  <path id="Path_16" data-name="Path 16" d="M58.8,173.2h1.1c.3,0,.3-.1.3-.3v-7.7c1.9,2.1,4.9,5.7,6.7,7.6.4.5.5.5.9.5h1.3c.3,0,.4-.1.4-.3V161.8c0-.3-.1-.3-.3-.3H68.1c-.3,0-.3.1-.3.3v7.5c-2.1-2.5-5.8-6.5-6.5-7.3-.4-.5-.5-.5-.9-.5H57.5a.1.1,0,0,0-.1.1l.1.1a10.95,10.95,0,0,0,1,1.1.551.551,0,0,1,.2.5V173C58.5,173.2,58.6,173.2,58.8,173.2Z" fill="#ff0045"/>
  <path id="Path_17" data-name="Path 17" d="M83.4,156.3h1.2L86,151l1.5,5.3h1.1l1.4-4.1,1-3.2H89.5L88,153.9,86.8,149H85.3L84,153.9l-.9-3.3-.5-1.6H81.1Z" fill="#fff"/>
  <path id="Path_18" data-name="Path 18" d="M114.4,149H112v7.3h2.4a3.416,3.416,0,0,0,3.7-3.7,3.458,3.458,0,0,0-1.6-3.1A4.342,4.342,0,0,0,114.4,149Zm2.3,3.6a2.311,2.311,0,0,1-2.4,2.4h-.9v-4.7h1a2.149,2.149,0,0,1,1.9,1A1.844,1.844,0,0,1,116.7,152.6Z" fill="#fff"/>
  <path id="Path_19" data-name="Path 19" d="M106.2,149h0v7.3h5V155h-3.6v-6h-1.4Z" fill="#fff"/>
  <path id="Path_20" data-name="Path 20" d="M128.8,149v4.4a2.581,2.581,0,0,0,1.2,2.5,3.371,3.371,0,0,0,1.7.5,2.311,2.311,0,0,0,1.7-.5,2.682,2.682,0,0,0,1.2-2.5V149h-1.4v4.3a1.844,1.844,0,0,1-.4,1.3,1.606,1.606,0,0,1-1.1.5c-1,0-1.5-.7-1.5-1.7V149h-1.4Z" fill="#fff"/>
  <path id="Path_21" data-name="Path 21" d="M72.5,149v1.2h2v6.1h1.4v-6.1h2V149H72.5Z" fill="#fff"/>
  <path id="Path_22" data-name="Path 22" d="M136.1,149h0v7.3h1.4v-2.5h1.1c1.7,0,2.7-.9,2.7-2.4a2.238,2.238,0,0,0-2.5-2.4Zm3.5,1.6a1.325,1.325,0,0,1,0,1.4,1.29,1.29,0,0,1-1.1.5h-1v-2.2h1.1A1.209,1.209,0,0,1,139.6,150.6Z" fill="#fff"/>
  <path id="Path_23" data-name="Path 23" d="M125.1,150.2a2.588,2.588,0,0,1,1.4.4h0c.2.1.3.3.5.4l.1.1h0l.6-.7.3-.4h-.1a2.181,2.181,0,0,0-.5-.4,6.893,6.893,0,0,0-1.5-.7,2.2,2.2,0,0,0-.8-.1,3.936,3.936,0,0,0-2.5.8,3.775,3.775,0,0,0-1.3,2.9,3.517,3.517,0,0,0,3.7,3.7,4.142,4.142,0,0,0,2.3-.6c.1-.1.3-.2.4-.3h0l-.1-.2-.6-.9h0l-.1.1a.85.85,0,0,1-.5.3,2.392,2.392,0,0,1-1.5.3,2.768,2.768,0,0,1-1.3-.3,2.246,2.246,0,0,1-1.1-2.1,2.352,2.352,0,0,1,.6-1.7A5.107,5.107,0,0,1,125.1,150.2Z" fill="#fff"/>
  <path id="Path_24" data-name="Path 24" d="M59.1,150h0a4.2,4.2,0,0,0-1.4-.9,5.768,5.768,0,0,0-1.4-.3,3.465,3.465,0,0,0-3.7,3.7,3.653,3.653,0,0,0,.3,1.5,3.455,3.455,0,0,0,3.4,2.2,4.212,4.212,0,0,0,2-.4,1.794,1.794,0,0,0,.7-.5l.1-.1-.7-1.1h0l-.1.1c-.1.1-.2.1-.3.2a3.1,3.1,0,0,1-1.7.5,2.2,2.2,0,0,1-1.8-.8,2.456,2.456,0,0,1-.5-1.5,2.208,2.208,0,0,1,2.2-2.4,2.087,2.087,0,0,1,1.7.7l.1.1.1.1h0l.6-.7.4-.4Z" fill="#fff"/>
  <path id="Path_25" data-name="Path 25" d="M30,151.2a2.322,2.322,0,0,1,1.9-.9c.3,0,.7.1,1,.1.1,0,.3.1.4.1l.3-.9.1-.4h0a7.719,7.719,0,0,0-1.5-.2,3.323,3.323,0,0,0-2,.5,3.318,3.318,0,0,0-1.6,1.5,4.851,4.851,0,0,0-.8,2.1,3.21,3.21,0,0,0,.6,2.9,3.1,3.1,0,0,0,2.1.7,1.7,1.7,0,0,0,.7-.1,4.962,4.962,0,0,0,1.3-.3h0V156l.1-.9h0a3.653,3.653,0,0,1-1.5.3c-1.5,0-1.9-.9-1.7-2.5A3.035,3.035,0,0,1,30,151.2Z" fill="#fff"/>
  <path id="Path_26" data-name="Path 26" d="M60,149v7.3h1.4v-2.1l.5-.5.4-.5a3.778,3.778,0,0,1,.9,1.2,11.166,11.166,0,0,1,1,1.8v.1h1.5l-.1-.1a.367.367,0,0,1-.1-.3,13.612,13.612,0,0,0-2.1-3.2l-.4-.4,1.9-2.3.7-.9H63.8l-1.3,1.6-1.4,1.7v-3.3h0L60,149Z" fill="#fff"/>
  <path id="Path_27" data-name="Path 27" d="M23.4,152.6c.3-1.4,1.1-2.5,2.5-2.5.3,0,.6.1.9.1.2,0,.3.1.5.1l.3-.9.1-.4h0a7.719,7.719,0,0,0-1.5-.2,4.014,4.014,0,0,0-3.7,2.1,8.39,8.39,0,0,0-.7,1.9,3.843,3.843,0,0,0,.2,2.4.1.1,0,0,0,.1.1c.4.7,1.1,1.1,2.5,1.1a1.268,1.268,0,0,0,.6-.1,4.962,4.962,0,0,0,1.3-.3h0l.1-1.3h0a3.653,3.653,0,0,1-1.5.3,2.959,2.959,0,0,1-1-.2,1.205,1.205,0,0,1-.5-.5,1.718,1.718,0,0,1-.2-1.3S23.4,152.8,23.4,152.6Z" fill="#fff"/>
  <path id="Path_28" data-name="Path 28" d="M71.8,155H68v-1.7h3.4V152H68v-1.8h3.7V149H66.6v7.3h5.2Z" fill="#fff"/>
  <path id="Path_29" data-name="Path 29" d="M44.8,156.3v-2.5h.9l.1.1a6.52,6.52,0,0,1,1.7,2.5v.1H49l-.1-.1a8.512,8.512,0,0,0-1.8-2.7.1.1,0,0,0,.1-.1c.1,0,.1-.1.2-.1h0a2.144,2.144,0,0,0,1.1-1.9,1.609,1.609,0,0,0-.3-1.1,2.373,2.373,0,0,0-2.3-1.1H43.2v7.3h1.5v-.4Zm0-6.1H46c.8,0,1.3.4,1.3,1.1s-.5,1.1-1.3,1.1H44.9v-2.2Z" fill="#fff"/>
  <path id="Path_30" data-name="Path 30" d="M20,149l-1.1,5.6-.3,1.7H20l1.4-7.3Z" fill="#fff"/>
  <path id="Path_31" data-name="Path 31" d="M97.2,155.6a3.775,3.775,0,0,0,1.3-2.9,3.759,3.759,0,0,0-6.2-2.8,4.01,4.01,0,0,0-1.2,2.8,3.572,3.572,0,0,0,3.7,3.7A4.289,4.289,0,0,0,97.2,155.6Zm-.1-3a2.211,2.211,0,0,1-2.2,2.4,2.288,2.288,0,0,1-2.3-2.4,2.255,2.255,0,1,1,4.5,0Z" fill="#fff"/>
  <path id="Path_32" data-name="Path 32" d="M101,156.3h0v-2.5h.9c.2.1.3.3.5.5a4.44,4.44,0,0,1,.8,1.1,3.508,3.508,0,0,0,.5.8v.1h1.5l-.1-.1a8.623,8.623,0,0,0-1.1-1.9,5.008,5.008,0,0,0-.7-.8c.1,0,.1-.1.2-.1a.1.1,0,0,0,.1-.1,2.191,2.191,0,0,0,1.1-2c0-1.5-.9-2.3-2.5-2.3H99.5v7.3H101Zm1-3.8h-1v-2.2h1.1a1.222,1.222,0,0,1,.9.3,1.217,1.217,0,0,1,0,1.6A1.493,1.493,0,0,1,102,152.5Z" fill="#fff"/>
  <path id="Path_33" data-name="Path 33" d="M51.4,156.3V149H50v7.3h1.4Z" fill="#fff"/>
  <path id="Path_34" data-name="Path 34" d="M39.7,156.4a5.822,5.822,0,0,0,1.9-.3,4.054,4.054,0,0,0,.9-.5h0l-.1-.1-.6-1h0l-.1.1c-.3.2-.5.3-.8.5a.1.1,0,0,0-.1.1,3.4,3.4,0,0,1-1,.1,2.768,2.768,0,0,1-1.3-.3,2.246,2.246,0,0,1-1.1-2.1,2.352,2.352,0,0,1,.6-1.7,2.176,2.176,0,0,1,1.6-.7,3.055,3.055,0,0,1,1.9.8l.1.1h0l.6-.7.3-.3h0l-.1-.1a2.181,2.181,0,0,0-.5-.4,2.22,2.22,0,0,0-1.1-.5,3.6,3.6,0,0,0-1.1-.2,3.465,3.465,0,0,0-3.7,3.7,3.653,3.653,0,0,0,.3,1.5A3.6,3.6,0,0,0,39.7,156.4Z" fill="#fff"/>
  <path id="Path_35" data-name="Path 35" d="M40.9,44.4l-.1.1-.2.2c-.1.1-.1.1-.2.1-.1.1-.2.1-.3.3l-.2.2-.2.2a2.181,2.181,0,0,1-.5.4c-.1.1-.1.1-.2.1l-.3.3-.1.1a6.788,6.788,0,0,0-1.2,1.2.1.1,0,0,1-.1.1c-.5.5-.9,1-1.5,1.5l-.1.1A60.924,60.924,0,0,0,27,62.7a.1.1,0,0,1-.1.1,18.944,18.944,0,0,0-.9,2.1h0a52.648,52.648,0,0,0-4.1,20.5A53.261,53.261,0,0,0,33,118c.1.1.1,0,.1-.1s-.5-.9-1.4-2.5a51.709,51.709,0,0,1-5-10.7c-.1-.3-.2-.7-.3-1.1-.1-.3-.1-.5-.3-.7-.1-.3-.2-.7-.3-1.1-.1-.3-.1-.5-.2-.8-.1-.4-.2-.7-.3-1.1-.1-.3-.1-.5-.2-.8a5.274,5.274,0,0,0-.3-1.2c-.1-.3-.1-.5-.2-.9s-.1-.8-.2-1.3a2.769,2.769,0,0,1-.1-.9,6.6,6.6,0,0,1-.1-1.4c0-.3-.1-.5-.1-.8a8.084,8.084,0,0,1-.1-1.5c0-.2-.1-.5-.1-.7a10.933,10.933,0,0,0,.1-2,14.769,14.769,0,0,1,.1-2.1v-.6c0-.5.1-.9.1-1.4,0-.2.1-.5.1-.7a5.7,5.7,0,0,0,.1-1.3c0-.2.1-.5.1-.7.1-.4.1-.8.2-1.2a1.483,1.483,0,0,0,.1-.7c.1-.4.1-.8.2-1.2a1.268,1.268,0,0,0,.1-.6,3.545,3.545,0,0,1,.3-1.1,1.268,1.268,0,0,0,.1-.6c.1-.4.2-.7.3-1.1a1.268,1.268,0,0,0,.1-.6c.1-.3.2-.7.3-1.1.1-.2.1-.4.2-.6.1-.3.2-.7.3-1.1.1-.2.1-.4.2-.5a3.81,3.81,0,0,0,.3-1c.1-.2.1-.4.2-.5a7.93,7.93,0,0,1,.4-.9c.1-.2.1-.4.3-.5.1-.3.3-.6.4-.9a2.186,2.186,0,0,1,.3-.5c.1-.3.3-.5.4-.8l.3-.6a4.348,4.348,0,0,1,.4-.7l.3-.6c.1-.2.3-.5.4-.7l.3-.6a58.655,58.655,0,0,1,9.9-12.6,3.328,3.328,0,0,0,1.1-1.9h0v-.7a7.972,7.972,0,0,0-.3-1.5,17.4,17.4,0,0,0-.3-2.1h-.1l-.1.1-.1.1C41,44.4,41,44.4,40.9,44.4Z" fill="#ff0045"/>
  <path id="Path_36" data-name="Path 36" d="M117.9,48.4h0a2.865,2.865,0,0,0,1.1,1.9A53.965,53.965,0,0,1,129,63c.1.2.2.3.3.5a4.349,4.349,0,0,0,.4.7c.1.2.2.3.3.5.1.3.3.5.4.8.1.2.2.3.3.5a7.928,7.928,0,0,1,.4.9,2.186,2.186,0,0,0,.3.5c.1.3.3.6.4.9.1.2.1.4.3.5.1.3.3.6.4.9.1.2.1.4.2.5a3.809,3.809,0,0,1,.3,1c.1.2.1.4.2.6.1.3.2.7.3,1,.1.2.1.4.2.6.1.3.2.7.3,1.1.1.2.1.4.2.6.1.3.2.7.3,1.1a1.268,1.268,0,0,1,.1.6,4.509,4.509,0,0,0,.3,1.1,1.268,1.268,0,0,1,.1.6c.1.4.1.8.2,1.2a1.483,1.483,0,0,1,.1.7,4.868,4.868,0,0,1,.1,1.2c0,.2.1.5.1.7a5.7,5.7,0,0,1,.1,1.3c0,.2.1.4.1.7a7.083,7.083,0,0,1,.1,1.5v.5c0,.7.1,1.3.1,2.1v.7a8.6,8.6,0,0,1-.1,1.6c0,.3-.1.5-.1.9,0,.5-.1.9-.1,1.4,0,.3-.1.5-.1.7a6.6,6.6,0,0,0-.1,1.4c0,.2-.1.4-.1.7-.1.5-.1,1-.2,1.5,0,.2-.1.3-.1.5l-.3,1.5a.749.749,0,0,0-.1.5,7.972,7.972,0,0,0-.3,1.5,1.007,1.007,0,0,1-.1.3c-.1.5-.3,1-.4,1.5,0,.1-.1.2-.1.3a8.8,8.8,0,0,1-.5,1.5,51.709,51.709,0,0,1-5,10.7,11.665,11.665,0,0,0-1.4,2.5.1.1,0,0,0,.1.1A53.477,53.477,0,0,0,138,85.6,50.619,50.619,0,0,0,132.9,63a.1.1,0,0,0-.1-.1A61.127,61.127,0,0,0,124,49.6h0c-.5-.6-1-1.1-1.5-1.6l-.1-.1a13.471,13.471,0,0,0-1.2-1.2l-.1-.1-.3-.3-.1-.1a2.181,2.181,0,0,0-.5-.4l-.2-.2-.2-.2-.3-.3-.1-.1a.769.769,0,0,0-.3-.2.1.1,0,0,1-.1-.1l-.2-.2h0l-.1-.1h-.1l-.2-.1a.774.774,0,0,1-.1.3,19.981,19.981,0,0,0-.4,2.1,4.1,4.1,0,0,0-.1,1.1v.4C117.9,48.2,117.9,48.3,117.9,48.4Z" fill="#ff0045"/>
  <path id="Path_37" data-name="Path 37" d="M56.4,21.4h0c.1.1.1.1.1,0,.2-.1.3-.1.5-.2.1,0,.1-.1.2-.1a.749.749,0,0,1,.5-.1c.1,0,.1-.1.3-.1.2-.1.3-.1.5-.2.1,0,.1,0,.1-.1.2-.1.5-.1.7-.2h0a.6.6,0,0,1,.4-.1c.1,0,.1-.1.3-.1.1,0,.1-.1.2-.1s.1,0,.1-.1c.1,0,.2-.1.3-.1l.1-.1c.1-.1.2-.1.3-.3v-.3h0a20.78,20.78,0,0,1,4.3-9.4A19.485,19.485,0,0,1,85.8,3.6c.3.1.1.4-.1.5-1.6,1.3-3.3,3.1-4.3,4a35.058,35.058,0,0,0-3.3,4.5h0c-.1.2-.3.5-.4.7a.1.1,0,0,1-.1.1,2.186,2.186,0,0,1-.3.5.1.1,0,0,1-.1.1v.1h0c-.1.1-.1.3-.2.4h0v.2h.3c.2,0,.2-.1.3-.1h.2c.1-.1.3-.1.6-.4h0c.2-.1.3-.4.6-.7a.85.85,0,0,0,.3-.5c.1-.1.1-.2.2-.3h0a22.53,22.53,0,0,1,2.1-2.4,20.645,20.645,0,0,1,3.1-2.8.1.1,0,0,0,.1-.1c.3-.3.7-.5.9-.7.1-.1.1-.1.2-.1a5.5,5.5,0,0,1,.9-.7.1.1,0,0,0,.1-.1c.7-.5,1.3-.9,1.8-1.3h0A11.441,11.441,0,0,1,91,3.2l.7-.4h0v.3A24.247,24.247,0,0,0,80,0,24.608,24.608,0,0,0,69.1,2.6a.1.1,0,0,0-.1.1,4.348,4.348,0,0,0-.7.4.1.1,0,0,0-.1.1c-.2.1-.4.3-.6.3-.1.1-.1.1-.2.1-.2.1-.3.2-.5.3-.1.3-.2.3-.3.3a2.186,2.186,0,0,1-.5.3c0,.2-.1.2-.1.2-.2.1-.3.3-.5.3h0c-.2.2-.5.3-.7.5l-.2.2c-.1.1-.3.2-.3.3a1.38,1.38,0,0,0-.4.3l-.2.2-.4.4-.1.1-.5.5h0A17.382,17.382,0,0,0,61.4,9h0a14.367,14.367,0,0,0-2.1,3.2h0A21.016,21.016,0,0,0,58,14.8a23.512,23.512,0,0,0-1.6,6.6Z" fill="#fff"/>
  <path id="Path_38" data-name="Path 38" d="M119.8,42.6c.1.1.2.3.3.3h0a63.494,63.494,0,0,1,8.1,9h0c.6.8,1.3,1.7,1.9,2.6h0a.1.1,0,0,0,.1.1c.4.5.7,1.1,1.1,1.7a1990526065729.989,1990526065729.989,0,0,0,.2.2h0l.1.1c.1.1.1.2.2.3V57a9.252,9.252,0,0,0,.5,1h0c.3.6.7,1.3,1.1,2.2h0c.1.3.3.6.4.9h0c.1.3.3.6.4.9v.1c.1.3.3.6.4.9,0,.1.1.1.1.2a3.178,3.178,0,0,1,.3.9c0,.1.1.1.1.2.1.3.3.7.4,1.1a.1.1,0,0,0,.1.1,3.809,3.809,0,0,1,.3,1,.367.367,0,0,1,.1.3l.3.9c0,.1.1.2.1.3.1.4.3.9.4,1.3,0,.1.1.1.1.2.1.3.2.7.3,1.1a.749.749,0,0,1,.1.5,3.81,3.81,0,0,0,.3,1c0,.1.1.3.1.4.1.5.2.9.3,1.4a.367.367,0,0,0,.1.3c.1.4.1.8.2,1.2,0,.2.1.3.1.5a3.749,3.749,0,0,1,.1,1.1c0,.2.1.3.1.5.1.5.1,1,.2,1.5v.2a6.6,6.6,0,0,1,.1,1.4.9.9,0,0,0,.1.5c0,.4.1.8.1,1.2v2.2a56.512,56.512,0,0,1-17.7,40.7h0c-.3.3-.7.6-1,.9a.769.769,0,0,1-.3.2c-.3.3-.6.5-.9.8l-.1.1c-.7.6-1.4,1.1-2.1,1.7-2.5,1.9-4.7,3.3-6.1,4.3-1.2.7-1.7,1.5-1.2,2.9h0c.1.2.1.4.3.6v.1a.749.749,0,0,1,.1.5v.1a.367.367,0,0,1,.1.3h0c.3-.1,1.3-.7,2.9-1.6a70.929,70.929,0,0,0,7.4-4.9L122,130a7.272,7.272,0,0,0,.9-.8l.3-.3c.2-.2.5-.4.7-.6.1-.1.3-.3.4-.3.2-.2.4-.3.6-.5a2.181,2.181,0,0,1,.5-.4c.2-.1.3-.3.5-.5l.5-.5.5-.5.5-.5.5-.5.5-.5.5-.5c.2-.2.3-.4.5-.6a2.181,2.181,0,0,0,.4-.5,1.794,1.794,0,0,0,.5-.7,2.181,2.181,0,0,0,.4-.5c.2-.2.4-.5.6-.7.1-.1.2-.3.3-.4a4.348,4.348,0,0,1,.6-.7c.1-.1.2-.3.3-.4.2-.3.4-.5.7-.9.1-.1.1-.2.2-.3a6.07,6.07,0,0,0,.7-1h0a72.322,72.322,0,0,0,4-6.6.1.1,0,0,1,.1-.1c.2-.4.4-.8.6-1.3.1-.1.1-.1.1-.3l.6-1.2a.367.367,0,0,0,.1-.3c.2-.4.3-.8.5-1.2a.367.367,0,0,0,.1-.3c.2-.4.3-.9.5-1.3a.367.367,0,0,0,.1-.3,6.944,6.944,0,0,1,.5-1.3.367.367,0,0,0,.1-.3,5.024,5.024,0,0,1,.5-1.3.367.367,0,0,0,.1-.3,7.839,7.839,0,0,1,.5-1.4c0-.1.1-.2.1-.3.1-.5.3-1,.4-1.5,0-.1,0-.1.1-.1a6.376,6.376,0,0,1,.2-.7h0c0-.1.1-.2.1-.3h0c0,.1-.1.2-.1.3h0A62.494,62.494,0,0,0,145.1,82a58.343,58.343,0,0,0-3.9-21.4c0-.1-.1-.2-.1-.3-.3-.7-.5-1.3-.7-1.9a.367.367,0,0,1-.1-.3c-.1-.3-.3-.7-.4-1l-.3-.6c-.2-.5-.4-.9-.6-1.3a4.875,4.875,0,0,0-.3-.7,4.054,4.054,0,0,0-.5-.9c-.2-.3-.3-.7-.5-1a2.186,2.186,0,0,0-.3-.5c-.2-.4-.5-.8-.7-1.2-.1-.1-.1-.3-.2-.3a7.458,7.458,0,0,1-.7-1.2h0a.1.1,0,0,0-.1-.1v-.1a60.846,60.846,0,0,0-15.1-16.5.1.1,0,0,1-.1-.1h0l-.1-.1h-.2c-.2,1.5-.6,4.3-.9,5.9a4.331,4.331,0,0,1-.1.5h0a1.759,1.759,0,0,0-.1.6h0v.3a3.83,3.83,0,0,0,.7,2.8Z" fill="#fff"/>
  <path id="Path_39" data-name="Path 39" d="M96.2,126.3c.1,0,.1,0,.1.1a.367.367,0,0,0,.3.1h.1a.227.227,0,0,0,.1-.4l-.5-.5-.1-.1a2.181,2.181,0,0,0-.5-.4l-.1-.1-.3-.3c-.1-.1-.1-.1-.2-.1a.1.1,0,0,1-.1-.1.769.769,0,0,0-.3-.2c-.1-.1-.1-.1-.2-.1-.1-.1-.2-.1-.3-.3-.1-.1-.1-.1-.2-.1-.1-.1-.2-.1-.3-.2s-.1-.1-.2-.1c-.1-.1-.2-.1-.3-.2s-.1-.1-.2-.1c-.1-.1-.2-.1-.3-.2s-.1-.1-.2-.1c-.1-.1-.2-.1-.3-.2s-.1-.1-.2-.1c-.1-.1-.2-.1-.3-.2s-.1-.1-.2-.1c-.1-.1-.2-.1-.3-.2s-.1-.1-.2-.1c-.1-.1-.2-.1-.3-.2s-.1-.1-.2-.1a2.186,2.186,0,0,0-.5-.3.1.1,0,0,1-.1-.1,7.458,7.458,0,0,1-1.2-.7h0a.1.1,0,0,1-.1-.1h0c-.2-.1-.3-.2-.5-.3a.1.1,0,0,1-.1-.1,1.05,1.05,0,0,1-.5-.9,1.268,1.268,0,0,1,.1-.6c2.7-5.1,5.1-10.1,7.3-15,.1-.2.1-.3.2-.5.5-1.1,1-2.3,1.5-3.4a.1.1,0,0,1,.1-.1c.9-2.1,1.7-4.1,2.4-6.1.2-.5.3-.9.5-1.3h0a5.023,5.023,0,0,1,.5-1.3c1.9-5.3,3.5-10.4,4.9-15.1.2-.7.4-1.5.6-2.2v-.1l.3-.9a7.894,7.894,0,0,0,.3-1.3,1.087,1.087,0,0,0,.1-.5c.1-.5.3-1.1.4-1.5l.3-1.2a6.373,6.373,0,0,1,.2-.7h0c1.4-5.5,2.3-10.1,3.1-14.3v0a23.813,23.813,0,0,1,.5-2.6V50c.1-.9.3-1.8.4-2.7,1-6.7,1.9-15.1,2.1-17.4a2.772,2.772,0,0,0,0-1.3,1.64,1.64,0,0,0-.7-1.2c-.4-.3-2.1-1.1-2.5-1.3-.1,0-.1,0-.1-.1h0s-.2,2.9-.6,6.8v.3c-.2,2.1-.5,4.3-.8,6.7-.1.9-.2,1.7-.3,2.5a4.1,4.1,0,0,0-.1,1.1.367.367,0,0,1-.1.3,3.4,3.4,0,0,0-.1,1c0,.1-.1.3-.1.4,0,.2-.1.5-.1.7a4.331,4.331,0,0,0-.1.5,1.952,1.952,0,0,0-.1.7,4.331,4.331,0,0,0-.1.5c0,.2-.1.4-.1.6a4.331,4.331,0,0,0-.1.5,4.331,4.331,0,0,1-.1.5c0,.1,0,.1-.1.3a1.952,1.952,0,0,0-.1.7v.1a1.952,1.952,0,0,0-.1.7c-.4,2.3-1,5.5-1.3,7.2a1.007,1.007,0,0,1-.1.3c0,.1,0,.1-.1.2,0,.1,0,.1-.1.2,0,.1-.1.2-.1.3s0,.1-.1.1c0,.1-.1.1-.1.2s-.1.1-.1.2h0v.1c-.1.2-.1.5-.3.6l-.1.1h-.1s.1-.3.6-4c.3-1.7.6-4,1-7.3.3-2.7.6-5.5.9-7.8.2-2.2.4-4.1.5-5.1,0-.3.1-.5.1-.7.1-1.1.2-2.3.3-3.3-.1,1.2-.2,2.6-.3,4,.5-5.9.7-10.7.7-11h0a.1.1,0,0,1-.1-.1h0a1.1,1.1,0,0,0-.4-.2,65.883,65.883,0,0,0-13.5-4.5c-.1,0-.1,0-.2-.1a4.508,4.508,0,0,1-1.1-.3h-.2c-.1,0-.1,0-.2-.1a1.952,1.952,0,0,0-.7-.1c-.1,0-.1,0-.3-.1h-.2a1.952,1.952,0,0,0-.7-.1,1.007,1.007,0,0,1-.3-.1h-.2c-.1,0-.3-.1-.4-.1a.367.367,0,0,1-.3-.1c-.1,0-.2-.1-.3-.1H89c-.2,0-.3-.1-.5-.1a1.007,1.007,0,0,1-.3-.1h-.1a25913984788016.965,25913984788016.965,0,0,0-1-.2H87a1.087,1.087,0,0,1-.5-.1,1.087,1.087,0,0,1-.5-.1h-.1a.9.9,0,0,1-.5-.1H85c0,.5-.4.5-.8.5h-.1c-.4,0-.8-.1-1.3-.1H77.5a6.151,6.151,0,0,0-1.3.1h-.3c-.4,0-.7.1-1.1.1h0c-.3,0-.6.1-.9.1h-.1c-.3,0-.6.1-.9.1a.367.367,0,0,0-.3.1c-.2,0-.5.1-.7.1-.1,0-.3,0-.3.1-.2,0-.4.1-.6.1h-.1c-.1,0-.1,0-.3.1a4.331,4.331,0,0,1-.5.1.367.367,0,0,0-.3.1h-.1c-.1,0-.2.1-.3.1s-.2.1-.3.1-.3.1-.4.1h0c-.1,0-.1,0-.2.1-.1,0-.1,0-.3.1a2.2,2.2,0,0,1-.8.1c-.1,0-.1,0-.2.1H67a4.508,4.508,0,0,0-1.1.3h-.1a61.958,61.958,0,0,0-13.5,4.5,1.1,1.1,0,0,0-.4.2h0a.1.1,0,0,0-.1.1h0s.2,4.8.7,10.9v.2h0c0,.2.1.5.1.7.2,2.2.6,6.3,1.1,10.3.1.6.1,1.1.2,1.7.4,3.3.8,5.7,1,7.3.5,3.7.6,3.9.6,4h-.1a.1.1,0,0,1-.1-.1,3.329,3.329,0,0,1-.3-.6v-.1h0c0-.1-.1-.1-.1-.3v-.1c0-.1-.1-.2-.1-.3v-.1c0-.1-.1-.2-.1-.3a.749.749,0,0,1-.1-.5c-.3-1.7-.9-5-1.3-7.2v-.1a4.331,4.331,0,0,1-.1-.5c0-.1,0-.1-.1-.3a1.483,1.483,0,0,1-.1-.7.367.367,0,0,0-.1-.3,4.331,4.331,0,0,0-.1-.5c0-.1-.1-.2-.1-.3a1.952,1.952,0,0,1-.1-.7c0-.1-.1-.2-.1-.3a2.769,2.769,0,0,1-.1-.9c0-.1,0-.1-.1-.2a2.769,2.769,0,0,1-.1-.9c0-.1,0-.1-.1-.3a3.75,3.75,0,0,1-.1-1.1.367.367,0,0,0-.1-.3,4.485,4.485,0,0,1-.1-1.1c-.1-.8-.2-1.7-.3-2.5-.3-2.4-.6-4.7-.8-6.7v-.2a6.6,6.6,0,0,1-.1-1.4h0c0-.2-.1-.5-.1-.7h0c0-.2-.1-.4-.1-.6v-.9a4.1,4.1,0,0,1-.1-1.1h0c-.1-1.3-.2-2.1-.2-2.1h0c-.1.1-2.1,1-2.5,1.3-.6.5-.9,1-.7,2.5-.2,2.4.7,10.8,1.7,17.4.3,1.8.5,3.6.9,5.5a2.483,2.483,0,0,1-.1-.9c.7,4.4,1.7,9.1,3.2,15.1h0c.7,2.6,1.4,5.4,2.3,8.5a231.474,231.474,0,0,0,17.2,43,1.262,1.262,0,0,1-.1,1.2c-.1.1-.2.3-.4.3a.1.1,0,0,0-.1.1c-.1.1-.3.1-.4.2h0a4.348,4.348,0,0,0-.7.4h-.1a2.186,2.186,0,0,1-.5.3c-.1.1-.1.1-.2.1-.1.1-.3.1-.3.2-.1.1-.1.1-.2.1-.1.1-.2.1-.3.2s-.1.1-.3.1a.367.367,0,0,1-.3.1c-.1.1-.1.1-.3.1a.367.367,0,0,1-.3.1c-.1.1-.1.1-.3.1-.1.1-.1.1-.3.1-.1.1-.1.1-.2.1a.769.769,0,0,1-.3.2c-.1.1-.1.1-.2.1a.769.769,0,0,1-.3.2c-.1.1-.1.1-.2.1-.1.1-.2.1-.3.2s-.1.1-.2.1c-.1.1-.2.1-.3.2s-.1.1-.2.1l-.3.3c-.1.1-.1.1-.2.1l-.3.3-.1.1-.5.5h0l-.5.5a.494.494,0,0,0-.1.3l.1.1H63c.1,0,.1-.1.3-.1h.1a.1.1,0,0,0,.1-.1c.1,0,.1-.1.2-.1h.1c.1,0,.1-.1.3-.1h.1a.367.367,0,0,1,.3-.1h0c.3-.1.5-.2.8-.3h0a36.755,36.755,0,0,1,5.7-1.5c.1,0,.2-.1.3-.1a15.171,15.171,0,0,1,2.1-.3c1.1-.1,2.2-.3,3.1-.3.4,0,.8-.1,1.3-.1h2.9a10.284,10.284,0,0,1,1.7.1,1.483,1.483,0,0,1,.7.1,24.768,24.768,0,0,1,2.7.3c.7.1,1.5.2,2.3.3.1,0,.2.1.3.1a4.508,4.508,0,0,1,1.1.3.9.9,0,0,0,.5.1h.1c.5.1,1,.3,1.5.4a2.614,2.614,0,0,1,.8.3c.1,0,.2.1.3.1a2.614,2.614,0,0,1,.8.3c.1,0,.1,0,.1.1H94l.5.1c.1,0,.1,0,.1.1.1,0,.2.1.3.1H95c.2.1.4.1.6.2h.1c.1,0,.1.1.2.1Zm-1.3,1c-1.1-.4-1.7-.6-1.7-.6l-2.1-.7h-.4c-.1,0-.1,0-.2-.1-.1,0-.1-.1-.2-.1a1.007,1.007,0,0,1-.3-.1h0a1.007,1.007,0,0,1-.3-.1.31.31,0,0,1-.2-.1h-.1l-1.8-.3a.367.367,0,0,1-.3-.1,1.952,1.952,0,0,0-.7-.1.6.6,0,0,1-.4-.1c-.2,0-.5-.1-.7-.1a.6.6,0,0,1-.4-.1c-.2,0-.5-.1-.7-.1h-.3c-1.4-.1-3-.1-3.9-.1h-.1c-.5,0-2,0-3.6.1h-.3c-.2,0-.4.1-.6.1a1.087,1.087,0,0,0-.5.1c-.2,0-.4.1-.6.1a4.331,4.331,0,0,1-.5.1c-.2,0-.4.1-.6.1-.1,0-.3.1-.4.1a4.331,4.331,0,0,0-.5.1c-.1,0-.3.1-.4.1a4.331,4.331,0,0,0-.5.1c-.1,0-.3.1-.4.1s-.1,0-.2.1h0c-.9.2-2,.5-3.2.8h0a6.373,6.373,0,0,1-.7.2h0c-.2.1-.5.1-.7.3h0c-.1,0-.1,0-.1.1a.1.1,0,0,0-.1.1c-.1.1-.3.1-.5.2h0c-.1,0-.1.1-.2.1a.367.367,0,0,1-.3.1H65c-1,.4-1.9.9-2.7,1.3h0c-.3.2-.5.3-.8.5h0a13.443,13.443,0,0,0-1.4,1.1l-.1.1c-.2.1-.3.3-.5.5l-.1.1-.5.5-.1.1a2.182,2.182,0,0,0-.4.5h0a7.632,7.632,0,0,0-.8,1.1v.1a4.129,4.129,0,0,0-.7,1.1h0a12.134,12.134,0,0,0-2.2,5.3c0,.1,0,.3.1.2s.2-.1.3-.3c.1-.1,2.6-2.1,10.5-3.5,2.1-.4,4.6-.7,7.5-1,.3,0,.5-.1.7-.1.3,0,.7-.1,1.1-.1a1.483,1.483,0,0,0,.7-.1c.5,0,.9-.1,1.3-.1h.6a15.483,15.483,0,0,0,2.1-.1h.7a91.757,91.757,0,0,1,14.1,1.3c1.3.3,2.5.5,3.5.7a27.737,27.737,0,0,1,5.8,2c.8.4,1.1.7,1.2.7l.1.1c.1.1.1.1.2.1l.1.1h.1a.1.1,0,0,0,.1-.1v-.1h0c0-.1-.1-.3-.1-.4v-.1a.749.749,0,0,1-.1-.5h0a.749.749,0,0,1-.1-.5c0-.1,0-.1-.1-.1-.1-.2-.1-.4-.2-.5h0l-.3-.6a.1.1,0,0,0-.1-.1,8.266,8.266,0,0,0-.7-1.3.1.1,0,0,0-.1-.1,1.794,1.794,0,0,0-.5-.7h0c-.2-.3-.5-.7-.7-1h0c-.3-.3-.5-.7-.8-1v-.1l-.1-.1-.1-.1h0a4.233,4.233,0,0,1-.5-.7h0l-.1-.1-.5-.5a.1.1,0,0,1-.1-.1l-.1-.1c-.1-.1-.3-.3-.4-.3l-.1-.1c-.1-.1-.2-.1-.3-.2a.769.769,0,0,0-.3-.2c-.1-.1-.1-.1-.2-.1a2.186,2.186,0,0,0-.5-.3l-.1-.1c-.1-.1-.1-.1-.2-.1a4.347,4.347,0,0,0-.7-.4.1.1,0,0,1-.1-.1,4.349,4.349,0,0,1-.7-.4H97C97,128.2,96.1,127.8,94.9,127.3Zm-39-98.5h0A23.32,23.32,0,0,1,59,27.6c.2-.1.4-.1.5-.2A64.534,64.534,0,0,1,67,25.3q2.85-.6,5.1-.9a45.248,45.248,0,0,1,7.1-.6h1.3a6.151,6.151,0,0,1,1.3.1h.8a1.268,1.268,0,0,1,.6.1h.2a.9.9,0,0,1,.5.1h.2a.9.9,0,0,1,.5.1h.3c.2,0,.3.1.5.1a.367.367,0,0,1,.3.1c.2,0,.3.1.5.1a.367.367,0,0,1,.3.1c.2,0,.4.1.6.1.1,0,.3.1.4.1.2,0,.4.1.6.1.1,0,.3.1.4.1.2,0,.4.1.6.1.1,0,.3.1.4.1a1.7,1.7,0,0,0,.7.1,1.007,1.007,0,0,1,.3.1,1.952,1.952,0,0,0,.7.1c.1,0,.2.1.3.1.3.1.6.1.9.2a66.193,66.193,0,0,1,7.3,2.1c.2.1.3.1.5.2.5.2,1,.3,1.4.5a19.35,19.35,0,0,0,1.9.7.31.31,0,0,1-.2-.1.31.31,0,0,0,.2.1h0v.2h0v.1c0,.1,0,.1-.1.1h0c-.1.1-.1.1-.3.1-.5-.1-3.2-1-3.6-1.1a1.146,1.146,0,0,0-.6,0,.1.1,0,0,0-.1.1l-.1.1-.1.1v.2c0,.1-.1.1-.1.2A19.382,19.382,0,0,1,80.4,43.2c-.8,0-2.1-.1-2.7-.1h0l-.2-.1c-.5-.1-.7-.5-.9-.9-.6-1.5-.1-3.7.1-5.1A43.176,43.176,0,0,1,79,29.8h0c.1-.2.5-1.3.5-1.3,0-.3-1.5.9-2,1.9a9.686,9.686,0,0,1,.7-.9,3.515,3.515,0,0,0-.7.9,28.234,28.234,0,0,0-2.9,7.7h0a37.142,37.142,0,0,0-.6,4.3,5.023,5.023,0,0,1-1.3-.5.1.1,0,0,1-.1-.1.1.1,0,0,1,.1.1,2.181,2.181,0,0,1-.5-.4A5.243,5.243,0,0,1,72,38a37.755,37.755,0,0,1,2.4-8.1h0c0-.1.4-.9.5-1.3.1-.3-.1-.2-.2-.1A5.194,5.194,0,0,0,73,30.4a3.179,3.179,0,0,1,1.2-1.1c.1-.1.1-.1.2-.1-.1,0-.1,0-.2.1A4.263,4.263,0,0,0,73,30.4h0a28.672,28.672,0,0,0-2.6,6.4h0c-.1.4-.3,1.5-.5,2.4-.1.5-.1.9-.2,1.4a10.565,10.565,0,0,1-1.3-.9l-.4-.4.4.4a2.181,2.181,0,0,1-.4-.5,9.994,9.994,0,0,1,.2-3.7,33.514,33.514,0,0,1,1.6-5.4.1.1,0,0,1,.1-.1c0,.1,0,.1-.1.1.2-.5.3-.9.4-1.1v-.1c0-.1-.1-.1-.3.1a6.455,6.455,0,0,0-1.7,2.2h0a21.946,21.946,0,0,0-1.7,4.1h0c-.2.9-.5,1.7-.6,2.5a24.146,24.146,0,0,1-3.5-4.5,20.877,20.877,0,0,1-1.7-4.1v-.1h0a1.237,1.237,0,0,0-.2-.3h-.1a.749.749,0,0,0-.5-.1h-.1a.438.438,0,0,1-.3.1c-.8.3-3.2,1-3.9,1.2a.349.349,0,0,0-.2.1h-.2a.1.1,0,0,1-.1-.1.1.1,0,0,0-.1-.1v-.1h0v-.1c.9-.8.9-.8.9-.9ZM57.3,31h0v-.9h.1a8.211,8.211,0,0,0,.5,1.7h0a.367.367,0,0,1,.1.3h0a27.5,27.5,0,0,0,2.3,4.5v.1c.1.1.2.3.3.4a.1.1,0,0,0,.1.1c.1.1.2.3.3.4l.1.1c.1.1.2.3.3.4a.1.1,0,0,0,.1.1c.1.1.2.3.3.4a.1.1,0,0,0,.1.1c.1.1.2.3.3.4a.1.1,0,0,0,.1.1c.1.1.2.3.3.4l.1.1c.1.1.2.3.3.4l.1.1.4.4.1.1.4.4.1.1a2.181,2.181,0,0,0,.5.4h0a10.628,10.628,0,0,0,1.1.9A23.464,23.464,0,0,0,80,47.4h.2a23.935,23.935,0,0,0,15.4-5.8h0A16.605,16.605,0,0,0,97,40.3h0l.1-.1a30.139,30.139,0,0,0,3.5-4.7,11.938,11.938,0,0,0,.8-1.6,18.925,18.925,0,0,0,1.3-3.7v-.1a3.869,3.869,0,0,1-.1.9h0v.1c-.1.9-.2,2.5-.3,3v.1h0c-.1.3-.2,2.2-.5,4.5-.2,1.6-.3,3.3-.5,5.1h0c-.3,2.3-.5,4.4-.6,5.7a5.384,5.384,0,0,0-.1,1.1,4.869,4.869,0,0,0-.1,1.2c-.1.8-.2,1.6-.3,2.5a3.4,3.4,0,0,0-.1,1c-.1.9-.2,1.9-.3,2.8,0,.3-.1.5-.1.7-.3,2-.5,4-.8,5.9h0a2.769,2.769,0,0,0-.1.9,204.1,204.1,0,0,1-10.3,40.8c-.3.8-.9,2.3-1.7,4.3h0c-.1.1-.1.3-.2.5h0c-.9,2.1-1.9,4.4-2.9,6.5-.1.1-.3.5-.5.7-.1,0-.2.1-.3.1a.1.1,0,0,1-.1-.1h0l-.1-.1v-.5a.756.756,0,0,1,.1-.4c0-.3.1-.5.1-1h0c.3-2.1.8-6.5,1.4-12.7.5-5.5,1.3-13.5,1.8-21.2a10.869,10.869,0,0,0,.1-1.8h0q.15-1.95.3-4.2v-.1c0-.3.1-.7.1-1.1V75c0-.3.1-.7.1-1a1.483,1.483,0,0,1,.1-.7V73c.2-3.4.4-6.7.5-9.2v-.4h0c.1-1.7.1-2.9.2-3.4.1-1.3.3-6.2.3-8.9.1-1,.1-1.7.1-1.8a.6.6,0,0,0-.3-.6.367.367,0,0,0-.3-.1,4.331,4.331,0,0,1-.5.1,14.331,14.331,0,0,0-2,.5,1.069,1.069,0,0,0-.5.3h0v.1a.494.494,0,0,0-.1.3,9.4,9.4,0,0,1-.1,1.2c0,1-.1,2.6-.1,4.3h0c-.1,3.3-.3,7.3-.3,9-.2,3.1-1.1,19.6-1.4,21.9,0,.2-.1.3-.1.2v-.3h0c0-.3-.1-4,0-6.1V77.4h0c0-5,.1-15.6.1-22h0V50.1c0-.3-.1-.5-.5-.5H78.7a.55.55,0,0,0-.3.5v4.8h0c0,8.2.1,24,.1,25.2.1,2.3,0,6.1,0,6.2v.3c0,.1-.1,0-.1-.2-.3-2.3-1.2-18.8-1.4-21.9-.1-1.8-.3-6.4-.3-9.9h0c-.1-2.5-.1-4.5-.1-4.6a.6.6,0,0,0-.1-.4c-.1-.1-.1-.2-.3-.3-.1-.1-.1-.1-.2-.1-.4-.1-2-.5-2.5-.6h-.3a.319.319,0,0,0-.3.3c-.1.1-.1.2-.1.4s.1,2.1.1,4.4h0c.1,2.5.2,5.4.3,6.3,0,.5.1,1.7.2,3.5v-.1c.2,4.3.7,11.4,1,17h0v.2a1.483,1.483,0,0,0,.1.7v.2c0,.3.1.5.1.7.1,1,.1,2.1.2,3.1v.1c.1,1,.1,2,.2,2.9v.4a7.569,7.569,0,0,1,.1,1.5.6.6,0,0,0,.1.4,10.869,10.869,0,0,1,.1,1.8.6.6,0,0,0,.1.4,6.151,6.151,0,0,1,.1,1.3c0,.2.1.4.1.6a8.084,8.084,0,0,1,.1,1.5c0,.2.1.4.1.7s.1.7.1,1,.1.5.1.7c0,.3.1.7.1,1s.1.7.1,1,.1.5.1.7c0,.3.1.5.1.7,0,.3.1.7.1.9v.3c.6,6.3,1.1,10.6,1.4,12.7h0a4.331,4.331,0,0,1-.1-.5h0a4.331,4.331,0,0,0,.1.5h0a8.466,8.466,0,0,1,.1,1.3v.5a.1.1,0,0,1-.1.1h-.2c-.1,0-.2-.1-.3-.1a1.035,1.035,0,0,1-.5-.7c-1-2.1-2-4.5-2.9-6.5h0a.494.494,0,0,1-.1-.3h0c-.8-1.9-1.5-3.6-1.8-4.4C69,99,64.5,85.3,61.3,65.1c-.1-.4-.1-.9-.2-1.3h0a23,23,0,0,1-.3-2.6c-.1-.5-.1-1.1-.2-1.6-.1-.7-.2-1.5-.3-2.2L60,55.3c-.1-.6-.1-1.1-.2-1.7a15.17,15.17,0,0,0-.3-2.1c-.1-.6-.1-1.2-.2-1.7,0-.2-.1-.5-.1-1-.1-.8-.2-1.9-.3-3.1C58.3,40.7,57.3,31.6,57.3,31Z" fill="#fff"/>
  <path id="Path_40" data-name="Path 40" d="M92.9,4.7a29.04,29.04,0,0,0-6.6,4.8,27.573,27.573,0,0,0-3.1,3.6c-.3.5-.7.9-.9,1.2a.349.349,0,0,0-.1.2c-.1.1-.2.3-.3.4h0a.1.1,0,0,1-.1.1v.1h0c0,.1,0,.1.1.2H82a1.421,1.421,0,0,0,.6-.2h.1c.2-.1.3-.2.5-.3.1-.1.1-.1.2-.1a8.12,8.12,0,0,0,.9-1v-.1l.1-.1a24.541,24.541,0,0,1,2.3-2.3l.2-.2A23.885,23.885,0,0,1,92,7.4h0c.7-.4,1.9-.9,2.5-1.2h0a5.947,5.947,0,0,1,.7-.3.1.1,0,0,0,0-.2c-.4-.3-1.2-.9-1.5-1.2l-.1-.1h-.3A.373.373,0,0,1,92.9,4.7Z" fill="#fff"/>
  <path id="Path_41" data-name="Path 41" d="M96.4,7.5c-.1.1-.4.1-.8.3h0a24.832,24.832,0,0,0-4.4,2.7c-.3.3-.7.6-1.1,1h0c-.1.1-.1.1-.2.1l-.3.3-.4.4-.2.2-.6.6-.1.1-.5.5-.1.1a2.181,2.181,0,0,0-.4.5l-.1.1v.1h0c-.1.1-.2.3-.3.4a.1.1,0,0,1-.1.1l-.1.1c-.1.1-.2.3-.3.4h0v.1l.1.1h.1a3.751,3.751,0,0,0,1-.1c.1-.1.3-.1.3-.2l.3-.3h.1l.1-.1a4.62,4.62,0,0,0,.7-.7h0l.2-.2a17.651,17.651,0,0,1,2.3-1.9,12.5,12.5,0,0,1,3.1-1.7c.3-.1.3.1.4.1l.1.1v.1c.1.1.1.1.1.2h0a17.117,17.117,0,0,1,2.6,4.3,23.071,23.071,0,0,1,1.5,5c.1.3.3.4.4.4.3.1.7.2,1,.3h0c.3.1.7.2,1.1.3h.1c.1.1.3.1.5.2h.1c.2.1.4.1.6.2l.1-.1h0a6.151,6.151,0,0,1-.1-1.3c0-.1-.1-.3-.1-.4a2.769,2.769,0,0,1-.1-.9,1.007,1.007,0,0,0-.1-.3,3.809,3.809,0,0,0-.3-1,.6.6,0,0,1-.1-.4.9.9,0,0,1-.1-.5.6.6,0,0,1-.1-.4,4.874,4.874,0,0,0-.3-.7.367.367,0,0,1-.1-.3c-.1-.2-.1-.3-.2-.5a.367.367,0,0,1-.1-.3,4.874,4.874,0,0,0-.3-.7c-.1-.1-.1-.1-.1-.2-.1-.3-.3-.5-.3-.7-.1-.1-.1-.2-.2-.3a34.6,34.6,0,0,0-2.8-4c-.3-.3-.5-.6-.8-.9L97,7.7h-.2c-.3-.2-.3-.2-.4-.2Z" fill="#fff"/>
  <path id="Path_42" data-name="Path 42" d="M14.7,86c0,.4.1.8.1,1.2,0,.3.1.5.1.8a4.1,4.1,0,0,1,.1,1.1v.3h0v.1h0v-.1c0,.2.1.4.1.6a4.869,4.869,0,0,1,.1,1.2c0,.2.1.5.1.7v-.1h0v.1h0V92c.1.4.1.7.2,1.1a1.7,1.7,0,0,1,.1.7,5.274,5.274,0,0,0,.3,1.2,1.268,1.268,0,0,1,.1.6c.1.4.2.8.3,1.1,0,.1,0,.1.1.2h0v-.1h0V97h0a6.372,6.372,0,0,0,.2.7v.1c.1.5.3,1,.4,1.5,0,.1.1.1.1.2a7.838,7.838,0,0,0,.5,1.4c0,.1.1.2.1.3a5.023,5.023,0,0,0,.5,1.3.367.367,0,0,1,.1.3,5.023,5.023,0,0,0,.5,1.3.367.367,0,0,1,.1.3c.2.4.3.9.5,1.3a.367.367,0,0,1,.1.3c.2.4.3.9.5,1.3a.367.367,0,0,1,.1.3c.2.4.4.9.6,1.3.1.1.1.1.1.2a8.265,8.265,0,0,0,.7,1.3.1.1,0,0,0,.1.1c1.5,2.7,3.1,5.3,4.7,7.6.1.1.1.2.2.3a5.5,5.5,0,0,0,.7.9c.1.1.2.3.3.4.2.3.4.5.6.8.1.1.2.3.3.4a4.349,4.349,0,0,0,.6.7,2.181,2.181,0,0,1,.4.5,1.794,1.794,0,0,1,.5.7,2.181,2.181,0,0,1,.4.5c.2.2.3.4.5.6l.5.5c.2.2.3.4.5.5l.5.5c.1.2.3.3.5.5.1.2.3.3.5.5l.5.5.5.5a2.181,2.181,0,0,0,.5.4c.2.2.4.3.6.5.1.1.3.3.4.3.2.2.5.4.7.6l.3.3c.3.3.7.5,1,.8.9.7,1.9,1.5,2.7,2.1a87.565,87.565,0,0,0,9.1,5.7h.1c0-.1.1-.2.1-.3h0c.1-.1.1-.3.2-.5h0c.1-.2.1-.4.3-.6h0c.5-1.3,0-2.1-1.2-2.9a47.941,47.941,0,0,1-6.1-4.3c-.7-.5-1.3-1.1-2.1-1.7l-.1-.1c-.3-.3-.6-.5-.9-.8a.769.769,0,0,0-.3-.2c-.3-.3-.7-.6-1-.9a64.708,64.708,0,0,1-5.9-6.5,55.081,55.081,0,0,1-5.3-8.2,10.092,10.092,0,0,1-.7-1.5A11.111,11.111,0,0,1,26,108a52.319,52.319,0,0,1-4.3-14.5c-.1-.5-.1-1.1-.2-1.5-.1-.5-.1-1.1-.2-1.7h0c-.1-1.7-.3-3.5-.3-5.3V83.4a3.4,3.4,0,0,1,.1-1v-.5c0-.3.1-.7.1-1.1v-.2a55.649,55.649,0,0,1,7.6-23.9,40.95,40.95,0,0,1,3.1-4.6h0a63.494,63.494,0,0,1,8.1-9,2.268,2.268,0,0,0,.7-1.1h0c0-.1.1-.1.1-.2a.1.1,0,0,1,.1-.1,4.3,4.3,0,0,0,0-1.6c0-.1-.1-1.1-.3-2.3h0a4.331,4.331,0,0,1-.1-.5c0-.1,0-.1-.1-.3a1.007,1.007,0,0,0-.1-.3v-.1a9.83,9.83,0,0,1-.5-1.6v-.1a4.1,4.1,0,0,1-.1-1.1v-.1c0-.1-.1-.3-.1-.4v-.1a4.331,4.331,0,0,1-.1-.5h-.1l-.1.1h0c-1.5,1-24.8,17.8-24.8,49.4,0,1.1.1,2.2.1,3.3A.749.749,0,0,1,14.7,86Z" fill="#fff"/>
</svg>
