<svg xmlns="http://www.w3.org/2000/svg" xmlns:xlink="http://www.w3.org/1999/xlink" width="638" height="719" viewBox="0 0 638 719">
  <defs>
    <clipPath id="clip-Web_1920_1">
      <rect width="638" height="719"/>
    </clipPath>
  </defs>
  <g id="Web_1920_1" data-name="Web 1920 – 1" clip-path="url(#clip-Web_1920_1)">
    <rect width="638" height="719" fill="#fff"/>
    <g id="logout" transform="translate(63 103.37)">
      <path id="Path_3" data-name="Path 3" d="M190.37,65.63a190.29,190.29,0,0,1,157.85,83.92,23.27,23.27,0,1,1-38.57,26,143.79,143.79,0,0,0-119.28-63.43c-79.3,0-143.83,64.52-143.83,143.83s64.53,143.83,143.83,143.83a143.74,143.74,0,0,0,119.47-63.72,23.287,23.287,0,0,1,38.64,26,190.23,190.23,0,0,1-158.11,84.3C85.4,446.37,0,361,0,256S85.4,65.63,190.37,65.63Z" fill="#60717e"/>
      <path id="Path_4" data-name="Path 4" d="M162.91,279.27H432.54l-30.09,30.09a23.271,23.271,0,0,0,32.91,32.91l69.82-69.81.1-.11a14.357,14.357,0,0,0,1.43-1.58c.14-.16.26-.35.39-.52.33-.43.67-.86,1-1.31.1-.15.18-.31.28-.46.31-.49.62-1,.89-1.5.07-.11.11-.23.17-.34.29-.56.57-1.13.81-1.72l.09-.24c.25-.62.49-1.25.68-1.9a.382.382,0,0,1,.07-.26c.18-.64.35-1.28.48-1.94a3.132,3.132,0,0,1,.1-.6c.09-.55.19-1.1.24-1.66a22.5,22.5,0,0,0,0-4.64c-.05-.57-.15-1.13-.25-1.68a2.912,2.912,0,0,0-.09-.58c-.13-.67-.3-1.32-.49-2a2.005,2.005,0,0,0-.06-.23c-.2-.66-.44-1.3-.69-1.93l-.08-.21c-.25-.6-.53-1.18-.83-1.75-.05-.1-.09-.21-.14-.31-.29-.53-.6-1-.93-1.54-.08-.14-.16-.28-.25-.42-.32-.48-.67-.93-1-1.39l-.33-.44a22.2,22.2,0,0,0-1.53-1.69L435.43,169.7a23.271,23.271,0,1,0-32.91,32.91L432.6,232.7H162.91a23.27,23.27,0,1,0,0,46.54Z" fill="#fc1048"/>
    </g>
  </g>
</svg>
