<svg id="Layer_1" data-name="Layer 1" xmlns="http://www.w3.org/2000/svg" viewBox="0 0 512 512"><defs><style>.cls-1{fill:#28387d;}.cls-2{fill:#5593ce;}</style></defs><title>Artboard 1</title><path class="cls-1" d="M190.37,65.63a190.29,190.29,0,0,1,157.85,83.92,23.27,23.27,0,1,1-38.57,26,143.79,143.79,0,0,0-119.28-63.43c-79.3,0-143.83,64.52-143.83,143.83s64.53,143.83,143.83,143.83a143.74,143.74,0,0,0,119.47-63.72,23.28,23.28,0,0,1,38.64,26,190.23,190.23,0,0,1-158.11,84.3C85.4,446.37,0,361,0,256S85.4,65.63,190.37,65.63Z"/><path class="cls-2" d="M162.91,279.27H432.54l-30.09,30.09a23.27,23.27,0,1,0,32.91,32.91l69.82-69.81.1-.11c.5-.5,1-1,1.43-1.58.14-.16.26-.35.39-.52.33-.43.67-.86,1-1.31.1-.15.18-.31.28-.46.31-.49.62-1,.89-1.5.07-.11.11-.23.17-.34.29-.56.57-1.13.81-1.72l.09-.24c.25-.62.49-1.25.68-1.9,0-.08,0-.17.07-.26.18-.64.35-1.28.48-1.94,0-.2.06-.4.1-.6.09-.55.19-1.1.24-1.66a22.49,22.49,0,0,0,0-4.64c-.05-.57-.15-1.13-.25-1.68,0-.19-.05-.39-.09-.58-.13-.67-.3-1.32-.49-2a2,2,0,0,0-.06-.23c-.2-.66-.44-1.3-.69-1.93l-.08-.21c-.25-.6-.53-1.18-.83-1.75-.05-.1-.09-.21-.14-.31-.29-.53-.6-1-.93-1.54-.08-.14-.16-.28-.25-.42-.32-.48-.67-.93-1-1.39l-.33-.44a22.21,22.21,0,0,0-1.53-1.69l-69.81-69.81a23.27,23.27,0,1,0-32.91,32.91l30.08,30.09H162.91a23.27,23.27,0,0,0,0,46.54Z"/></svg>