<svg id="Capa_1" data-name="Capa 1" xmlns="http://www.w3.org/2000/svg" viewBox="0 0 352.62 352.62"><defs><style>.cls-1{fill:#fff;}.cls-2{fill:#8bc34a;}</style></defs><title>tick</title><circle class="cls-1" cx="158.62" cy="185.23" r="148.56"/><path class="cls-2" d="M325.5,20.85c-12.34-6.64-26.1,6.17-34.17,13.76-18.5,18-34.16,38.91-51.72,57.89-19.45,20.88-37.48,41.76-57.41,62.16-11.39,11.39-23.73,23.73-31.32,38C133.8,176,119.09,158,100.11,143.27c-13.76-10.44-36.54-18-36.06,7.12.94,32.74,29.89,67.86,51.24,90.16,9,9.49,20.88,19.45,34.64,19.93,16.61.94,33.69-19,43.66-29.9,17.55-19,31.79-40.33,47.92-59.79,20.88-25.62,42.23-50.77,62.64-76.87C317,77.79,357.29,37.93,325.5,20.85ZM84.92,148.49A3.52,3.52,0,0,0,83,149a23.18,23.18,0,0,1-5.22-1.9h0Q79.94,145.65,84.92,148.49Z"/></svg>