<svg id="Layer_1" data-name="Layer 1" xmlns="http://www.w3.org/2000/svg" xmlns:xlink="http://www.w3.org/1999/xlink" viewBox="0 0 519.54 499.56"><defs><style>.cls-1{fill:url(#linear-gradient);}.cls-2{fill:#fff;}.cls-3{fill:#464655;}.cls-4{fill:#ff4b55;}.cls-5{fill:#41479b;}.cls-6{fill:#73af00;}.cls-7{fill:#f5f5f5;}.cls-8{fill:#ffe15a;}.cls-9{fill:#7b0041;}.cls-10{fill:#25252d;}.cls-11{fill:#577c05;}</style><linearGradient id="linear-gradient" x1="103.6" y1="205.89" x2="525.32" y2="300.09" gradientUnits="userSpaceOnUse"><stop offset="0" stop-color="#25252d"/><stop offset="0.2" stop-color="#2b3028"/><stop offset="0.54" stop-color="#3c4d1b"/><stop offset="0.99" stop-color="#577b05"/><stop offset="1" stop-color="#577c05"/></linearGradient></defs><title>Artboard 1 copy 16</title><path class="cls-1" d="M386,372.63c-41.89,47.45-92.5,80-142.31,95.38,40.91-14.85,81.46-42.17,115.36-80.56,84-95.17,95.44-222.41,25.46-284.2S189.64,68.51,105.61,163.68c-44.1,49.94-68.18,108.7-71,162.21C34.94,264,62.54,193.4,115.31,133.64c93-105.33,229-137.23,303.75-71.23S479,267.3,386,372.63Z"/><ellipse class="cls-2" cx="231.54" cy="277.53" rx="232.41" ry="168.77" transform="translate(-129.81 269.55) rotate(-48.9)"/><polygon class="cls-3" points="69 181.5 69 315.98 158.66 248.74 69 181.5"/><path class="cls-4" d="M113.83,142.28l100.86,78.44H394V147.88a5.61,5.61,0,0,0-5.6-5.61H113.83Z"/><path class="cls-5" d="M113.83,355.21l100.86-78.45H394V349.6a5.61,5.61,0,0,1-5.6,5.61Z"/><path class="cls-6" d="M105.11,142.28H74.6a5.6,5.6,0,0,0-5.6,5.6v23l98.37,77.88L69,326.62v23a5.61,5.61,0,0,0,5.6,5.61h30.51l106.17-84.06H394V226.33H211.28Z"/><polygon class="cls-7" points="123.17 142.28 105.11 142.28 211.28 226.33 394 226.33 394 215.12 215.18 215.12 123.17 142.28"/><polygon class="cls-8" points="69 170.86 69 185.16 149.32 248.74 69 312.33 69 326.62 167.37 248.74 69 170.86"/><polygon class="cls-7" points="211.28 271.15 105.11 355.21 123.16 355.21 215.18 282.36 394 282.36 394 271.15 211.28 271.15"/><path class="cls-9" d="M388.4,355.21H74.6A5.61,5.61,0,0,1,69,349.6V147.88a5.6,5.6,0,0,1,5.6-5.6H388.4a5.6,5.6,0,0,1,5.6,5.6V349.6A5.61,5.61,0,0,1,388.4,355.21Z"/><path class="cls-10" d="M176.67,355.86h-103A5.62,5.62,0,0,1,68,350.24V147.89a5.62,5.62,0,0,1,5.62-5.62h103Z"/><rect class="cls-4" x="176.67" y="142.28" width="108.67" height="213.59"/><path class="cls-11" d="M388.38,355.86h-103V142.27H388.38a5.62,5.62,0,0,1,5.62,5.62V350.24A5.62,5.62,0,0,1,388.38,355.86Z"/><polygon class="cls-7" points="245.67 260.09 216.33 260.09 217.96 256.83 244.04 256.83 245.67 260.09"/><polygon class="cls-7" points="245.67 234.01 216.33 234.01 217.96 237.27 244.04 237.27 245.67 234.01"/><polygon class="cls-7" points="239.15 235.64 222.85 235.64 226.11 232.38 235.89 232.38 239.15 235.64"/><rect class="cls-7" x="217.96" y="251.94" width="4.89" height="3.26"/><rect class="cls-7" x="217.96" y="247.05" width="4.89" height="3.26"/><rect class="cls-7" x="217.96" y="238.9" width="4.89" height="3.26"/><rect class="cls-7" x="217.96" y="243.79" width="4.89" height="1.63"/><rect class="cls-7" x="239.15" y="251.94" width="4.89" height="3.26"/><rect class="cls-7" x="239.15" y="247.05" width="4.89" height="3.26"/><rect class="cls-7" x="239.15" y="238.9" width="4.89" height="3.26"/><rect class="cls-7" x="239.15" y="243.79" width="4.89" height="1.63"/><rect class="cls-7" x="219.59" y="225.86" width="3.26" height="6.52"/><path class="cls-7" d="M222.85,224.23h-3.26V222.6a1.63,1.63,0,0,1,1.63-1.63h0a1.63,1.63,0,0,1,1.63,1.63v1.63Z"/><rect class="cls-7" x="239.15" y="225.86" width="3.26" height="6.52"/><path class="cls-7" d="M242.41,224.23h-3.26V222.6a1.63,1.63,0,0,1,1.63-1.63h0a1.63,1.63,0,0,1,1.63,1.63v1.63Z"/><path class="cls-7" d="M231,238.9h0a6.52,6.52,0,0,0-6.52,6.52v9.78h13v-9.78A6.52,6.52,0,0,0,231,238.9Z"/><path class="cls-7" d="M220.21,249.17l-8.87-10.36a1.78,1.78,0,0,0,.1-.52,1.63,1.63,0,1,0-1.63,1.63,1.27,1.27,0,0,0,.28-.06l.92,1.07-4.46,10.4,4.89,4.89,4.22-9.85,3.31,3.86Zm-7.93,3.4-3.9-3.9,1.76-4.11,3.9,3.9Z"/><path class="cls-7" d="M243.07,250.23l3.31-3.86,4.22,9.85,4.89-4.89L251,240.93l.92-1.07a1.4,1.4,0,0,0,.28.06,1.63,1.63,0,1,0-1.63-1.63,1.78,1.78,0,0,0,.1.52l-8.87,10.35Zm4.93-1.77,3.9-3.9,1.76,4.11-3.9,3.9Z"/><path class="cls-7" d="M232.84,222.88a2.16,2.16,0,0,1-1.25-.88,10.48,10.48,0,0,1-.59-1,10.48,10.48,0,0,1-.59,1,2.16,2.16,0,0,1-1.25.88,6.52,6.52,0,0,0-4.68,6.24,6.82,6.82,0,0,0,.23,1.63h12.58a6.82,6.82,0,0,0,.23-1.63A6.52,6.52,0,0,0,232.84,222.88Z"/><path class="cls-7" d="M193.65,246.86c-.08-1-.14-2-.14-3.07a37.17,37.17,0,0,1,.53-6.18c.47.33,1,.69,1.47,1.09a35.77,35.77,0,0,0-.37,5.09,35.26,35.26,0,0,0,.18,3.57l3.45,1a31.83,31.83,0,0,1-.37-4.6c0-.78,0-1.55.11-2.32a10.88,10.88,0,0,1,3.22,7.07c0,.07,5.23-7.74-4.28-16.36l-.07,3.66-5.47-.06a1,1,0,0,0-1,.84,41.47,41.47,0,0,0-.64,7.17c0,.69,0,1.38.06,2.06Z"/><path class="cls-7" d="M208.11,214.11a1.63,1.63,0,0,0-2-2.58,40.47,40.47,0,0,0-14.63,22.29l3.36,0A37.31,37.31,0,0,1,208.11,214.11Z"/><path class="cls-7" d="M205.93,218.17a35.85,35.85,0,0,0-8.06,12,18.07,18.07,0,0,1,2.52,2.5,32.45,32.45,0,0,1,7.82-12.16,1.63,1.63,0,0,0-2.28-2.34Z"/><path class="cls-7" d="M200.26,265.16a37.81,37.81,0,0,1-5.41-11.54l1.9.7A35.92,35.92,0,0,0,202,264.83l3.59-.65a33.08,33.08,0,0,1-4.92-8.41l2.13.78a31.19,31.19,0,0,0,4.62,7.29l3.74-.68a27.81,27.81,0,0,1-3.86-5l-2.17-4.34a5.44,5.44,0,0,0-3.3-2.77l-5.13-1.55-1.19-.35-1.7-.52-3.4-1-1.81-.54,1.12,3.37a3.28,3.28,0,0,0,1.39,1.76,40.68,40.68,0,0,0,5.6,13.62Z"/><path class="cls-7" d="M264.61,235.84l-.06-3.66c-9.51,8.62-4.28,16.43-4.28,16.36a10.88,10.88,0,0,1,3.22-7.07c.06.77.11,1.54.11,2.32a31.72,31.72,0,0,1-.37,4.6l3.45-1c.11-1.18.18-2.37.18-3.57a37.3,37.3,0,0,0-.37-5.09c.51-.4,1-.76,1.47-1.09a37.17,37.17,0,0,1,.52,6.18c0,1-.05,2.05-.13,3.07l3.34-1c0-.68.05-1.37.05-2.06a40.51,40.51,0,0,0-.64-7.17,1,1,0,0,0-1-.84Z"/><path class="cls-7" d="M267.15,233.86l3.36,0a40.47,40.47,0,0,0-14.63-22.29,1.63,1.63,0,1,0-2,2.58A37.31,37.31,0,0,1,267.15,233.86Z"/><path class="cls-7" d="M264.13,230.17a35.85,35.85,0,0,0-8.06-12,1.63,1.63,0,0,0-2.28,2.33,32.56,32.56,0,0,1,7.82,12.17A18.07,18.07,0,0,1,264.13,230.17Z"/><path class="cls-7" d="M271.56,247.59l-3.39,1-1.71.52-1.19.35L260.14,251a5.46,5.46,0,0,0-3.3,2.78l-2.16,4.33a27.61,27.61,0,0,1-3.87,5l3.74.69a30.87,30.87,0,0,0,4.62-7.29l2.13-.78a32.85,32.85,0,0,1-4.92,8.4l3.59.66a35.92,35.92,0,0,0,5.28-10.51l1.9-.7a37.65,37.65,0,0,1-5.41,11.53l3.52.65a40.65,40.65,0,0,0,5.6-13.63,3.25,3.25,0,0,0,1.39-1.76l1.13-3.36Z"/><path class="cls-7" d="M248,265.61l-.09.08a27.52,27.52,0,0,1-33.8,0l-.08-.08a2.61,2.61,0,0,0-2.44-.8l-16.44,3.43,3.65,3.19a4.79,4.79,0,0,0,3.48,1.18,41,41,0,0,0,10,7.34l-1.07,2a41.52,41.52,0,0,0,39.58,0l-1.07-2a41.25,41.25,0,0,0,10-7.34,4.77,4.77,0,0,0,3.47-1.18l3.65-3.19-16.44-3.43A2.61,2.61,0,0,0,248,265.61Zm-34.16,11.46a38,38,0,0,1-8.09-5.71l1.58-.76a35.73,35.73,0,0,0,7.29,5Zm42.43-5.71a38.07,38.07,0,0,1-8.1,5.71l-.77-1.42a36.7,36.7,0,0,0,7.29-5Zm-25.26,5a32.38,32.38,0,0,1-20.48-7.3l1.63-.78a30.77,30.77,0,0,0,37.7,0l1.62.78A32.33,32.33,0,0,1,231,276.38Z"/><path class="cls-7" d="M213.12,263.3c.69.59,1.42,1.15,2.18,1.68h31.4c.76-.53,1.48-1.09,2.18-1.68l-1.58-1.58H214.7Z"/></svg>