<svg id="Layer_1" data-name="Layer 1" xmlns="http://www.w3.org/2000/svg" xmlns:xlink="http://www.w3.org/1999/xlink" viewBox="0 0 519.54 499.56"><defs><style>.cls-1{fill:url(#linear-gradient);}.cls-2{fill:#fff;}.cls-3{fill:#464655;}.cls-4{fill:#ff4b55;}.cls-5{fill:#41479b;}.cls-6{fill:#73af00;}.cls-7{fill:#f5f5f5;}.cls-8{fill:#ffe15a;}</style><linearGradient id="linear-gradient" x1="432.63" y1="229.37" x2="196.1" y2="257.71" gradientUnits="userSpaceOnUse"><stop offset="0" stop-color="#41479b"/><stop offset="1" stop-color="#6aaeff"/></linearGradient></defs><title>Artboard 1 copy 9</title><path class="cls-1" d="M386,372.63c-41.89,47.45-92.5,80-142.31,95.38,40.91-14.85,81.46-42.17,115.36-80.56,84-95.17,95.44-222.41,25.46-284.2S189.64,68.51,105.61,163.68c-44.1,49.94-68.18,108.7-71,162.21C34.94,264,62.54,193.4,115.31,133.64c93-105.33,229-137.23,303.75-71.23S479,267.3,386,372.63Z"/><ellipse class="cls-2" cx="231.54" cy="277.53" rx="232.41" ry="168.77" transform="translate(-129.81 269.55) rotate(-48.9)"/><polygon class="cls-3" points="69 181.5 69 315.98 158.66 248.74 69 181.5"/><path class="cls-4" d="M113.83,142.28l100.86,78.44H394V147.88a5.61,5.61,0,0,0-5.6-5.61H113.83Z"/><path class="cls-5" d="M113.83,355.21l100.86-78.45H394V349.6a5.61,5.61,0,0,1-5.6,5.61Z"/><path class="cls-6" d="M105.11,142.28H74.6a5.6,5.6,0,0,0-5.6,5.6v23l98.37,77.88L69,326.62v23a5.61,5.61,0,0,0,5.6,5.61h30.51l106.17-84.06H394V226.33H211.28Z"/><polygon class="cls-7" points="123.17 142.28 105.11 142.28 211.28 226.33 394 226.33 394 215.12 215.18 215.12 123.17 142.28"/><polygon class="cls-8" points="69 170.86 69 185.16 149.32 248.74 69 312.33 69 326.62 167.37 248.74 69 170.86"/><polygon class="cls-7" points="211.28 271.15 105.11 355.21 123.16 355.21 215.18 282.36 394 282.36 394 271.15 211.28 271.15"/><path class="cls-5" d="M388.4,355.21H74.6A5.61,5.61,0,0,1,69,349.6V147.88a5.6,5.6,0,0,1,5.6-5.6H388.4a5.6,5.6,0,0,1,5.6,5.6V349.6A5.61,5.61,0,0,1,388.4,355.21Z"/><path class="cls-7" d="M225.9,142.28h-9.74l-51.9,34v-34h-28v34l-51.9-34H74.6a5.6,5.6,0,0,0-5.6,5.6v4.44l44.53,29.18H69v28h44.53L69,238.69v4.45a5.6,5.6,0,0,0,5.6,5.6h9.74l51.9-34v34h28v-34l51.9,34h9.74a5.6,5.6,0,0,0,5.6-5.6v-4.45L187,209.52H231.5v-28H187l44.53-29.18v-4.44A5.6,5.6,0,0,0,225.9,142.28Z"/><polygon class="cls-4" points="231.5 187.1 158.66 187.1 158.66 142.28 141.84 142.28 141.84 187.1 69 187.1 69 203.91 141.84 203.91 141.84 248.74 158.66 248.74 158.66 203.91 231.5 203.91 231.5 187.1"/><path class="cls-4" d="M130.64,181.5l-59-38.28A5.53,5.53,0,0,0,69,147.88v.29l51.35,33.33Z"/><path class="cls-4" d="M174.55,181.5l56.1-36.41a5.53,5.53,0,0,0-4.75-2.81h-1.22L164.26,181.5Z"/><path class="cls-4" d="M125.79,209.52l-56,36.34a5.52,5.52,0,0,0,4.79,2.88h1.06l60.43-39.22Z"/><path class="cls-4" d="M231.41,243.58l-52.47-34.06H168.65l59.58,38.68A5.55,5.55,0,0,0,231.41,243.58Z"/><path class="cls-7" d="M152,279.29l4.22,14,13.56-5.4a1.26,1.26,0,0,1,1.5,1.88l-8.28,12L175.62,309a1.26,1.26,0,0,1-.53,2.35l-14.56,1,2.25,14.41a1.26,1.26,0,0,1-2.17,1.05l-9.87-10.75-9.87,10.75a1.26,1.26,0,0,1-2.17-1.05L141,312.35l-14.56-1a1.26,1.26,0,0,1-.53-2.35l12.67-7.23-8.28-12a1.26,1.26,0,0,1,1.5-1.88l13.56,5.4,4.23-14A1.26,1.26,0,0,1,152,279.29Z"/><path class="cls-7" d="M318.64,180l2.07,6.82,6.62-2.64a.61.61,0,0,1,.73.92L324,191l6.18,3.53a.62.62,0,0,1-.26,1.15l-7.11.49,1.1,7a.61.61,0,0,1-1.06.51l-4.82-5.24-4.82,5.24a.61.61,0,0,1-1.06-.51l1.1-7-7.11-.49a.62.62,0,0,1-.27-1.15l6.19-3.53-4-5.87a.61.61,0,0,1,.73-.92l6.62,2.64,2.07-6.82A.61.61,0,0,1,318.64,180Z"/><path class="cls-7" d="M272.57,232.37l2.07,6.82,6.62-2.64a.61.61,0,0,1,.73.92l-4,5.87,6.19,3.53a.62.62,0,0,1-.27,1.15l-7.11.5,1.1,7a.61.61,0,0,1-1.06.51L272,250.82l-4.82,5.25a.62.62,0,0,1-1.06-.51l1.1-7-7.11-.5a.62.62,0,0,1-.26-1.15l6.18-3.53-4-5.87a.62.62,0,0,1,.73-.92l6.62,2.64,2.07-6.82A.62.62,0,0,1,272.57,232.37Z"/><path class="cls-7" d="M362.22,210l2.07,6.82,6.62-2.63a.61.61,0,0,1,.73.92l-4,5.87,6.19,3.53a.61.61,0,0,1-.26,1.14l-7.11.5,1.1,7a.61.61,0,0,1-1.06.51l-4.82-5.25-4.83,5.25a.61.61,0,0,1-1.06-.51l1.1-7-7.11-.5a.61.61,0,0,1-.26-1.14l6.19-3.53-4-5.87a.61.61,0,0,1,.73-.92l6.62,2.63,2.07-6.82A.61.61,0,0,1,362.22,210Z"/><path class="cls-7" d="M318.64,299.61l2.07,6.82,6.62-2.64a.62.62,0,0,1,.73.92l-4,5.87,6.18,3.53a.62.62,0,0,1-.26,1.15l-7.11.5,1.1,7a.61.61,0,0,1-1.06.51l-4.82-5.25-4.82,5.25a.61.61,0,0,1-1.06-.51l1.1-7-7.11-.5a.62.62,0,0,1-.27-1.15l6.19-3.53-4-5.87a.61.61,0,0,1,.73-.92l6.62,2.64,2.07-6.82A.62.62,0,0,1,318.64,299.61Z"/><path class="cls-7" d="M334.62,244.62l-1.65,5-5.25,0a.7.7,0,0,0-.41,1.27l4.22,3.12-1.59,5a.71.71,0,0,0,1.09.78l4.26-3,4.27,3a.7.7,0,0,0,1.08-.78l-1.58-5,4.22-3.12a.7.7,0,0,0-.41-1.27l-5.25,0-1.66-5A.71.71,0,0,0,334.62,244.62Z"/></svg>