<svg id="Layer_1" data-name="Layer 1" xmlns="http://www.w3.org/2000/svg" xmlns:xlink="http://www.w3.org/1999/xlink" viewBox="0 0 519.54 499.56"><defs><style>.cls-1{fill:url(#linear-gradient);}.cls-2{fill:#fff;}.cls-3{fill:#f5f5f5;}.cls-4{fill:#ff4b55;}</style><linearGradient id="linear-gradient" x1="133.98" y1="154.75" x2="512.51" y2="363.15" gradientUnits="userSpaceOnUse"><stop offset="0" stop-color="#d01000"/><stop offset="1" stop-color="#ff4b55"/></linearGradient></defs><title>Artboard 1 copy 8</title><path class="cls-1" d="M386,372.63c-41.89,47.45-92.5,80-142.31,95.38,40.91-14.85,81.46-42.17,115.36-80.56,84-95.17,95.44-222.41,25.46-284.2S189.64,68.51,105.61,163.68c-44.1,49.94-68.18,108.7-71,162.21C34.94,264,62.54,193.4,115.31,133.64c93-105.33,229-137.23,303.75-71.23S479,267.3,386,372.63Z"/><ellipse class="cls-2" cx="231.54" cy="277.53" rx="232.41" ry="168.77" transform="translate(-129.81 269.55) rotate(-48.9)"/><path class="cls-3" d="M388.4,355H74.6a5.6,5.6,0,0,1-5.6-5.6V147.87a5.6,5.6,0,0,1,5.6-5.59H388.4a5.6,5.6,0,0,1,5.6,5.59V349.4A5.6,5.6,0,0,1,388.4,355Z"/><polygon class="cls-4" points="394 231.84 248.31 231.84 248.31 142.28 214.69 142.28 214.69 231.84 69 231.84 69 265.43 214.69 265.43 214.69 355 248.31 355 248.31 265.43 394 265.43 394 231.84"/></svg>