<svg id="Layer_1" data-name="Layer 1" xmlns="http://www.w3.org/2000/svg" xmlns:xlink="http://www.w3.org/1999/xlink" viewBox="0 0 519.54 499.56"><defs><style>.cls-1{fill:url(#linear-gradient);}.cls-2{fill:#fff;}.cls-3{fill:#ffd250;}.cls-4{fill:#963c3c;}.cls-5{fill:#5aa587;}.cls-6{fill:#ff7350;}.cls-7{fill:#464655;}.cls-8{fill:#f2953e;}.cls-9{fill:#398a41;}.cls-10{fill:#f5f5f5;}.cls-11{fill:#41479b;}</style><linearGradient id="linear-gradient" x1="102.53" y1="208.31" x2="525.42" y2="297.09" gradientUnits="userSpaceOnUse"><stop offset="0.17" stop-color="#fa6346"/><stop offset="1" stop-color="#fab446"/></linearGradient></defs><title>Artboard 1 copy 12</title><path class="cls-1" d="M386,372.63c-41.89,47.45-92.5,80-142.31,95.38,40.91-14.85,81.46-42.17,115.36-80.56,84-95.17,95.44-222.41,25.46-284.2S189.64,68.51,105.61,163.68c-44.1,49.94-68.18,108.7-71,162.21C34.94,264,62.54,193.4,115.31,133.64c93-105.33,229-137.23,303.75-71.23S479,267.3,386,372.63Z"/><ellipse class="cls-2" cx="231.54" cy="277.53" rx="232.41" ry="168.77" transform="translate(-129.81 269.55) rotate(-48.9)"/><path class="cls-3" d="M388.38,142.28H73.93a5.61,5.61,0,0,0-5.61,5.61V350a5.62,5.62,0,0,0,5.61,5.62H388.38A5.62,5.62,0,0,0,394,350V147.89A5.62,5.62,0,0,0,388.38,142.28Z"/><path class="cls-4" d="M186.24,164.74V333.19a5.61,5.61,0,0,0,5.61,5.62H371.54a5.61,5.61,0,0,0,5.61-5.62V164.74a5.62,5.62,0,0,0-5.61-5.62H191.85A5.62,5.62,0,0,0,186.24,164.74Z"/><path class="cls-5" d="M127.28,159.12H90.78a5.62,5.62,0,0,0-5.62,5.62V333.2a5.61,5.61,0,0,0,5.62,5.61h36.5Z"/><path class="cls-6" d="M163.77,159.12H127.28V338.81h36.49a5.61,5.61,0,0,0,5.62-5.62V164.74A5.62,5.62,0,0,0,163.77,159.12Z"/><path class="cls-3" d="M318.66,294c-.19-1.25.91-2.88,2.62-5.2a19.79,19.79,0,0,0,1.75-2.65,4.87,4.87,0,0,0-.54,0,4.06,4.06,0,0,1-3.62-1.28,2.6,2.6,0,0,1-.68-2,6.75,6.75,0,0,1,2.09-3.78,41,41,0,0,1-5.59-4.55,15.09,15.09,0,0,0-11.28-4.83c-.38,4.16,1.76,6.89,4,9.76.68.85,1.35,1.7,2,2.58,3,4.35,2.37,12.75,2,13.64a6.18,6.18,0,0,1-6.07,2.81,5.8,5.8,0,0,0-4.31,1.26,2.71,2.71,0,0,0-1,2c0,.05,0,.28.07.32.44.27,2.08-.25,3.25-.88a.83.83,0,0,1,1,.13,3.57,3.57,0,0,0,4.88.07.86.86,0,0,1,1.1,0c2.36,1.9,4.82-.18,4.92-.27a.87.87,0,0,1,1-.07,3.15,3.15,0,0,0,2.79.58,2,2,0,0,0,1.16-.93,27.26,27.26,0,0,0-.75-3.34A34.65,34.65,0,0,1,318.66,294Z"/><path class="cls-3" d="M344.2,214.4a1.93,1.93,0,0,0-1.58.45,2.65,2.65,0,0,0-.59,1.8.86.86,0,0,1-.28.68.83.83,0,0,1-.69.22c-1.28-.16-3.17-1.51-6.67-4.08-5.57-4.08-14-10.25-22-11.26C303,201,294.73,204,292.62,209.27c-2.35,5.88,2.64,11.23,2.69,11.29a.85.85,0,0,1,.14,1,4.38,4.38,0,0,0,.58,5.32,3,3,0,0,1,1.28-1.74c1.4-.84,3.23-.15,5.76.81a43.68,43.68,0,0,0,5.17,1.69c5.06,1.24,11.24.13,16.69-.84,1.93-.35,3.79-.68,5.52-.9,4.34-.55,8.7,1.37,9.9,4.39.58,1.47.89,4.4-3.55,7.63-8,5.81-44.41,3.13-46.56,3h-.19a7.75,7.75,0,0,0,2.14,1.88.86.86,0,0,1-.21,1.69l-3.73.06.34,3.59a.82.82,0,0,1-.27.7.87.87,0,0,1-.72.23,20,20,0,0,1-5.59-1.78l-4.22,2.66a.84.84,0,0,1-.46.13.83.83,0,0,1-.81-.56l-1.6-4.37L273,248.93a.88.88,0,0,1-.73.48.83.83,0,0,1-.77-.41l-1.64-2.6a16.56,16.56,0,0,1-3.17,3.14.82.82,0,0,1-.76.11.88.88,0,0,1-.55-.56l-.85-2.7a21.6,21.6,0,0,1-3,3.18.86.86,0,0,1-1.4-.61l-.28-4.34a25.29,25.29,0,0,1-3,1.38.87.87,0,0,1-.93-.29.85.85,0,0,1-.07-1c1.32-2.31,2.54-5.19,2.63-6.62a25.36,25.36,0,0,1-3.49,3.18c-2.93,2.39-6.57,5.36-9.25,10.55a19.92,19.92,0,0,0-.85,15.86c2,5,6.38,8.79,12.92,11.2a13.86,13.86,0,0,1-.41-2.76,40.2,40.2,0,0,1,.89-8.73.85.85,0,0,1,1-.64.86.86,0,0,1,.64,1,38.93,38.93,0,0,0-.84,8.3,25.89,25.89,0,0,0,1.8,7.13c1.15,3.3,2.34,6.71,1.83,9.59-.71,3.9-5.57,4.89-10.08,4.14a3.78,3.78,0,0,0-3.29.88,3.93,3.93,0,0,0-1.16,3.25c.05.59.27.71.34.75a3.64,3.64,0,0,0,2.51-.47.87.87,0,0,1,1.05.19c1.81,2,4.24,0,4.34-.08a.87.87,0,0,1,1.19.06,3.06,3.06,0,0,0,2.21,1.11,4.58,4.58,0,0,0,2.87-1.23.88.88,0,0,1,1-.17c2.84,1.3,4.33.55,4.39.51,2.46-2.1,1-7.08,1-7.13a.85.85,0,0,1,.08-.68.86.86,0,0,1,.55-.4,10.05,10.05,0,0,0,6.31-4.48,4.33,4.33,0,0,1-3.86-1.86c-1.28-2-.66-5,1.58-7.72,3.83-4.58,6.18-13.86,5.82-17.64a.86.86,0,0,1,1.72-.15c.31,3.3-1.18,10.17-3.91,15.34a65.38,65.38,0,0,0,9.88-3.85,89.49,89.49,0,0,1,10.7-4.3c6.86-2.15,12.91-.66,18,4.42a52.49,52.49,0,0,0,8.25,6.35c1.37.92,2.79,1.87,4.27,2.93,4,2.88,3.92,5.29,3.85,7.83a18.3,18.3,0,0,0,0,2.44c.41,4.14-2.87,4.79-4.45,5.1l-.6.13c-.22.06-.49.11-.78.17-1.61.33-4,.82-4.63,2.87a1.06,1.06,0,0,0-.06.5,6.24,6.24,0,0,0,2.61-.66.85.85,0,0,1,.7,0,.88.88,0,0,1,.47.51c.31.89.78,1.05.94,1.1,1.08.34,2.85-.66,3.39-1a.86.86,0,0,1,1.08.06,3.13,3.13,0,0,0,2.45,1.07,2.48,2.48,0,0,0,1.59-1.07.91.91,0,0,1,.66-.41.93.93,0,0,1,.72.28,5.53,5.53,0,0,0,2.29,1.29c1,.31,1.27,0,1.35-.17a3.25,3.25,0,0,0-.56-3.26,7,7,0,0,1-1.29-5.28,5.74,5.74,0,0,1,2.65-4c2.66-1.69,3.27-3.52,3.1-3.86a3.41,3.41,0,0,0-.57-.1c-1.19-.15-3.17-.42-5.21-4.18-1.81-3.33-.06-8.6,2-14.7a86.89,86.89,0,0,0,2.73-9.42c1.81-8.67-3.87-15.55-3.93-15.62A.87.87,0,0,1,339,241c4-3.74,5.7-7.21,5.09-10.3s-3.76-5.49-6.24-6.44c-3.1-1.19-8.75-.52-14.21.13-4.57.55-8.89,1.06-11.67.48a4.57,4.57,0,0,1-3.13-2,4.79,4.79,0,0,1-.65-2.53,5.79,5.79,0,0,0-2.33,1.82.88.88,0,0,1-.68.36.83.83,0,0,1-.7-.34,3.87,3.87,0,0,1-.84-3,6.35,6.35,0,0,1,1.82-3.35c-3.21-1.12-5.66,1.56-5.78,1.69a.86.86,0,0,1-1.09.16,5.37,5.37,0,0,1-2.44-4.75,4.79,4.79,0,0,1,2.58-4.2,3.65,3.65,0,0,1,3.09-.32,4.24,4.24,0,0,1,2,1.67,6.76,6.76,0,0,0,1.27-3.67.89.89,0,0,1,.28-.61.86.86,0,0,1,.62-.23,6,6,0,0,1,4.7,2.19,9.2,9.2,0,0,1,1.53,6.08c3.26-1.67,2.85-5.5,2.83-5.68a.85.85,0,0,1,1.14-.91,7.78,7.78,0,0,1,5,6.59,3.23,3.23,0,0,0,1-2.15.86.86,0,0,1,1.62-.41,12.58,12.58,0,0,0,4.85,4.8l-1-2.48a.86.86,0,0,1,.21-1,.88.88,0,0,1,1-.12,32.65,32.65,0,0,1,4.48,3.06,31.16,31.16,0,0,0,6,3.88c2.45,1.15,4.11.93,5.06.55a3.05,3.05,0,0,0,1.73-1.58,3.65,3.65,0,0,0-.11-3.08A2.15,2.15,0,0,0,344.2,214.4Z"/><path class="cls-3" d="M242.58,226.78h0a59.85,59.85,0,0,0,12.34,2.4.87.87,0,0,1,.62,1.4l-.2.26a27,27,0,0,1,4-.34c-.58-.7-1.31-1.59-2.06-2.52-1.56,0-7.28-.28-11.94-2.52-1.13-.55-3.08-1.49-4-1a1.05,1.05,0,0,0-.38.94C241.06,226,241.62,226.49,242.58,226.78Z"/><path class="cls-3" d="M262,214.34a1,1,0,0,0-.25,0,1,1,0,0,0-.61.87,1.34,1.34,0,0,0,.53,1.32,1.37,1.37,0,0,0,1.73-.25,1.17,1.17,0,0,0,.27-1.44h0A4.61,4.61,0,0,0,262,214.34Z"/><path class="cls-3" d="M253.52,235.09a7,7,0,0,0,1.6,2.28,3.09,3.09,0,0,1,1-1.24,3,3,0,0,1,2.42-.42h.15s.05,0,.08,0l.12,0,.08.06a1.82,1.82,0,0,1,1,.95c.65,1.52-.5,4.47-1.51,6.57.72-.35,1.4-.71,1.77-.91a.87.87,0,0,1,1.27.71l.24,3.84a26.76,26.76,0,0,0,2.42-3,.86.86,0,0,1,1.53.22l1,3.1a20.88,20.88,0,0,0,2.59-3A.9.9,0,0,1,270,244a.87.87,0,0,1,.7.4l1.48,2.36,2.12-4.22a.82.82,0,0,1,.81-.48.85.85,0,0,1,.76.57l1.93,5.24,3.76-2.38a.87.87,0,0,1,.93,0,14.35,14.35,0,0,0,4.31,1.59l-.33-3.37a.87.87,0,0,1,.85-.94l2.15,0a16.29,16.29,0,0,1-1.15-1.29.86.86,0,0,1-.19-.59,17,17,0,0,1-6-1.3l-1.31,2a.85.85,0,0,1-.55.37l-.17,0a.83.83,0,0,1-.48-.15l-5-3.33-.92,2.49a.86.86,0,0,1-1.45.26c-.86-1-2.2-2.48-3-3.3a17.39,17.39,0,0,1-3.33,2.56.87.87,0,0,1-1.22-.45l-1.36-3.66a.86.86,0,1,1,1.61-.6l1,2.66a19.58,19.58,0,0,0,2.67-2.3.85.85,0,0,1,1.16-.09c.5.4,1.86,1.9,2.81,3l.8-2.15a.85.85,0,0,1,1.29-.42l5.15,3.46,1.25-1.92a.86.86,0,0,1,1.1-.31,15.49,15.49,0,0,0,6.34,1.47,10.93,10.93,0,0,1-1.05-4.62,19.38,19.38,0,0,1-4.47-2.73l-.62,1.53a.86.86,0,0,1-1.3.37l-2.49-1.8-.24,1.86a.85.85,0,0,1-.48.66.83.83,0,0,1-.82,0,17.06,17.06,0,0,1-3.35-2.67.86.86,0,0,1,1.28-1.14,12.49,12.49,0,0,0,1.84,1.59l.25-1.92a.87.87,0,0,1,1.36-.59l2.77,2,.66-1.63a.87.87,0,0,1,1.39-.31,17.92,17.92,0,0,0,5.91,3.65,43.67,43.67,0,0,1-.69-5.33s0,0,0-.06a16.94,16.94,0,0,1-4.88-4,8.81,8.81,0,0,1-.35,2.82.88.88,0,0,1-.51.51.9.9,0,0,1-.72-.06,15.07,15.07,0,0,1-3.37-2.71,11.43,11.43,0,0,1-.77,2.18.87.87,0,0,1-1.13.33,13.78,13.78,0,0,1-2.57-1.73,14.6,14.6,0,0,1-.55,3.07.83.83,0,0,1-.5.49.88.88,0,0,1-.71,0,27.75,27.75,0,0,1-3-1.9l-.37,1.43a.88.88,0,0,1-.47.56.86.86,0,0,1-.72,0,12.61,12.61,0,0,1-4-2.89.86.86,0,0,1,1.33-1.09,9.28,9.28,0,0,0,2.44,1.93l.44-1.68a.84.84,0,0,1,.58-.6.87.87,0,0,1,.83.18,19.49,19.49,0,0,0,2.72,2c.17-1.07.3-2.6.36-3.6a.86.86,0,0,1,1.62-.36,7.53,7.53,0,0,0,2.46,2.26c.24-.74.53-1.83.75-2.76a.86.86,0,0,1,1.62-.16,8.52,8.52,0,0,0,2.77,2.94,25.75,25.75,0,0,0-.11-4.15.88.88,0,0,1,.62-.92.87.87,0,0,1,1,.45,14.6,14.6,0,0,0,6.39,6.28c.86-9.5-1.92-13.14-2-13.18a.87.87,0,0,1,.24-1.28,7.65,7.65,0,0,0,3.06-4.12c-3.5,3.39-9.05,4.7-11.75,5.15l1.32,1.61a.86.86,0,0,1-.58,1.4,17.42,17.42,0,0,1-7.35-.66l.56,1a.87.87,0,0,1,0,.87.83.83,0,0,1-.77.4,17,17,0,0,1-7-2.21,3.14,3.14,0,0,1-.93,1.76,3.24,3.24,0,0,1-2.25.94,2.94,2.94,0,0,1-1.63-.49,3,3,0,0,1-1.28-3,2.69,2.69,0,0,1,1.82-2.26c1.29-.38,2.75.36,4.61,1.31a21.29,21.29,0,0,0,5.13,2l-1.06-2a.86.86,0,0,1,.21-1.08.87.87,0,0,1,1.11,0s2.16,1.78,7,1.69l-1.22-1.5a.83.83,0,0,1-.13-.88.86.86,0,0,1,.71-.52c.09,0,7.16-.73,11.5-4.23a8.14,8.14,0,0,1-2.59.35.9.9,0,0,1-.61-.32,9.31,9.31,0,0,0-5.05-3.52,10,10,0,0,1-2,3.36.87.87,0,0,1-1.36-.14,6.81,6.81,0,0,0-5-3.29,4.78,4.78,0,0,1-2,4,.87.87,0,0,1-1.09-.05c-3.69-3.3-6.55-2.33-7.7-1.67a2.56,2.56,0,0,1-.05,2.15c-1.77,3.57-12.68,4.29-14.85,4.4a.85.85,0,0,1-.71-.32.87.87,0,0,1-.16-.76,2.3,2.3,0,0,0-.3-1.81,2.5,2.5,0,0,0-1.54-1.15,2.57,2.57,0,0,0-2.29.67c-.74.81-.79,2.32-.15,4.35,1.15,3.65,4.71,7.25,6.93,9.22a7.56,7.56,0,0,1,0-.87.86.86,0,0,1,.62-.78.84.84,0,0,1,.94.33,8.36,8.36,0,0,0,2.27,2.2l.43-2.75a.86.86,0,0,1,.75-.72.89.89,0,0,1,.9.53c.78,1.89,5.72,7.82,7.55,9.95a.85.85,0,0,1,.11,1,.87.87,0,0,1-.88.44,27,27,0,0,0-7.82.61.86.86,0,0,1-.86-1.38l.64-.79a62.31,62.31,0,0,1-10.34-2.1l-1.45,3.92,3.89-.39a.85.85,0,0,1,.78.34.88.88,0,0,1,.11.84l-.74,1.8,3.21-.85a.85.85,0,0,1,1,.51,7.07,7.07,0,0,0,1.36,2.23l.91-2a.84.84,0,0,1,.79-.51A.86.86,0,0,1,253.52,235.09Z"/><path class="cls-3" d="M242.37,279.11c3.4,2.26,6.14-.32,7.61-2.31a19.28,19.28,0,0,1-6.75-8.44,18.16,18.16,0,0,1-.95-3.3,82.67,82.67,0,0,1-9-8.36,5,5,0,0,1-.68,1.23,3.48,3.48,0,0,1-.34,2.64,3.08,3.08,0,0,1-.23,2.19,2.62,2.62,0,0,1,.32,2.64,3.48,3.48,0,0,1-.33.55c.49.59,1.27,1.95,1.27,4.69a5.07,5.07,0,0,0,1.19,3.51,1.82,1.82,0,0,1,1-.44c1.08-.12,2,.81,3.19,2.09A22,22,0,0,0,242.37,279.11Z"/><path class="cls-3" d="M225.49,255.77h-.2a18.93,18.93,0,0,1-3.41-.34,1.83,1.83,0,0,0,.34,1.3.91.91,0,0,1,.36.72.89.89,0,0,1-.36.71,1.42,1.42,0,0,0-.59.87c0,.37.44.76.7,1a.9.9,0,0,1,.34.6.88.88,0,0,1-.21.66,1.55,1.55,0,0,0-.37,1c0,.09,0,.35.49.65a.85.85,0,0,1,.37.57.87.87,0,0,1-.16.66,1,1,0,0,0-.15.7c.1.39.59.69,1,.87a8,8,0,0,0,2.86.61h.1a7.12,7.12,0,0,0,2.66-.36,2.53,2.53,0,0,0,1.55-1.25c.08-.17.24-.52-.44-1.31a.86.86,0,0,1,0-1.08s.58-.79.22-1.42a.86.86,0,0,1,.14-1,1.75,1.75,0,0,0,.16-1.82.88.88,0,0,1,.22-.93,3.08,3.08,0,0,0,.79-2.07l-.31-.39A15.46,15.46,0,0,1,225.49,255.77Z"/><path class="cls-3" d="M233.36,195.77c-3.48,1.87-10.9,7.74-11.12,23.81l.19,27.08.08.11a3.62,3.62,0,0,1,0,2.71,11.69,11.69,0,0,0,6,.17,3.37,3.37,0,0,1,.37-3C228.72,214.37,231.8,200.64,233.36,195.77Z"/><path class="cls-3" d="M233.72,250a3,3,0,0,0-2.07-2.79c-.21-.08-.93-.28-1.26.16a1.68,1.68,0,0,0-.19,1.94,1.61,1.61,0,0,1,.14,1,1.12,1.12,0,0,1-.68.72c-1.16.53-5.61,1.22-8.67-.36a.86.86,0,0,1-.38-1.15,3.13,3.13,0,0,0,.38-2s-.06-.11-.3-.14a5.31,5.31,0,0,0-.68-.05,3.54,3.54,0,0,0-2.55.9,1.87,1.87,0,0,0-.4,1.76c.51,2.46,3.59,3.95,8.25,4,3.29,0,6.13-.79,7.54-2.19A2.56,2.56,0,0,0,233.72,250Z"/><path class="cls-3" d="M226.31,270.45a.87.87,0,0,1,.85-.32c.6.13,2.09.44,2.94-.22a1.08,1.08,0,0,0,.14-1.26c-.08-.14-.32-.56-1.22-.22s-2.06.68-2.83,0a1.2,1.2,0,0,1-.32-.46c-.23,0-.46,0-.69-.07a1.27,1.27,0,0,1-.34.53c-.77.69-2,.34-2.83,0s-1.14.08-1.22.22a1.08,1.08,0,0,0,.14,1.26c.85.66,2.34.35,2.83.24a1,1,0,0,1,.91.31.87.87,0,0,1,.14.9,20.46,20.46,0,0,1-1.86,3.06,5.46,5.46,0,0,1-.18,6.88.91.91,0,0,1-.71.29.87.87,0,0,1-.66-.39,2,2,0,0,0-1.05-.81.88.88,0,0,0-.71.19,1.18,1.18,0,0,0-.16,1.24c.34,1,1.4,1.56,2.89,1.49a.87.87,0,0,1,.6,1.52l-1.4,1.2,2.29.56a.85.85,0,0,1,.62.61,9.39,9.39,0,0,0,1,2.26,8.92,8.92,0,0,0,1-2.26.88.88,0,0,1,.63-.61l2.29-.56-1.4-1.2a.85.85,0,0,1-.24-1,.84.84,0,0,1,.84-.55c1.47.07,2.54-.49,2.89-1.5a1.14,1.14,0,0,0-.17-1.23.88.88,0,0,0-.71-.19,2,2,0,0,0-1,.81.88.88,0,0,1-.66.39.87.87,0,0,1-.71-.29,5.46,5.46,0,0,1-.18-6.88,21,21,0,0,1-1.86-3.06A.88.88,0,0,1,226.31,270.45Z"/><path class="cls-7" d="M347.44,214.39a3.81,3.81,0,0,0-3.13-1.7,3.56,3.56,0,0,0-2.91.95,3.78,3.78,0,0,0-1,1.87,49.34,49.34,0,0,1-5-3.43c-5.71-4.19-14.34-10.51-22.82-11.58-6.87-.88-14.69.49-19,4.48.06-.53.08-.88.08-.94s0,0,0,0a.8.8,0,0,0-.12-.45l-.06-.07a.77.77,0,0,0-.37-.29h0a.79.79,0,0,0-.48,0l-.09,0a.79.79,0,0,0-.38.27l0,0a6.71,6.71,0,0,1-5.14,2.74c-3.22-3.83-6.63-3.95-6.77-3.95a.85.85,0,0,0-.87.73,6.22,6.22,0,0,1-1.11,2.44,8.42,8.42,0,0,0-7-3.16.83.83,0,0,0-.66.42.88.88,0,0,0,0,.79,2.42,2.42,0,0,1-.6,2.65c-5.59-4.48-9.9-.83-9.94-.79a.86.86,0,0,0-.14,1.14c.41.6.34.94.23,1.16-.91,1.84-7.47,3-12.38,3.38a4.16,4.16,0,0,0-.63-2,4.13,4.13,0,0,0-6.57-.73c-1.19,1.31-1.37,3.34-.51,6,1.33,4.2,5.32,8.15,7.65,10.19-.57-.21-1.13-.44-1.67-.7-1.38-.67-3.67-1.79-5.37-.91a2.74,2.74,0,0,0-1.3,2.64,3.17,3.17,0,0,0,1.94,2.54l-1.91,5.19a.85.85,0,0,0,.89,1.15l3.84-.38-.85,2.07a.89.89,0,0,0,.15.9.86.86,0,0,0,.87.26l4.16-1.1a6.74,6.74,0,0,0,2.58,3,.86.86,0,0,0,.68.06.89.89,0,0,0,.51-.46l.66-1.47a9.27,9.27,0,0,0,1.89,2l-.86.71c-2.89,2.35-6.85,5.58-9.7,11.09a22.39,22.39,0,0,0-2.21,11.48,71.7,71.7,0,0,1-8.86-8.74,6.9,6.9,0,0,0,1-.74,4.26,4.26,0,0,0,1.38-3,4.78,4.78,0,0,0-3.24-4.43,3.47,3.47,0,0,0-1.64-.14c-.05-37.51,4.22-49,5.09-50.93a.86.86,0,0,0-1-1.18c-.56.16-13.81,4.3-14.1,26.22l.18,26.15a5.46,5.46,0,0,0-4.5,1.39,3.55,3.55,0,0,0-.83,3.28c.45,2.16,2.18,3.74,4.85,4.62a2.49,2.49,0,0,0-.06,1,3.85,3.85,0,0,0,.41,1.39,2.7,2.7,0,0,0-.66,1.62,2.54,2.54,0,0,0,.78,1.84,2.91,2.91,0,0,0-.31,1.64,2.39,2.39,0,0,0,.65,1.37,2.57,2.57,0,0,0-.07,1.4,2.72,2.72,0,0,0,1,1.45,2.41,2.41,0,0,0-2.67,1.13,2.76,2.76,0,0,0,.58,3.46,3.88,3.88,0,0,0,2.6.76,7.37,7.37,0,0,1-1.19,1.66.85.85,0,0,0-.33.6.89.89,0,0,0,.22.66c.09.1,2,2.21.85,4.41a3,3,0,0,0-1.32-.66,2.59,2.59,0,0,0-2,.46,2.76,2.76,0,0,0-.82,3.2,3.87,3.87,0,0,0,2.53,2.42l-1.21,1a.87.87,0,0,0-.28.86.86.86,0,0,0,.63.63l3.46.84a8.91,8.91,0,0,0,1.88,3.24,1.09,1.09,0,0,0,.7.25.86.86,0,0,0,.6-.25,8.91,8.91,0,0,0,1.88-3.24l3.46-.84a.86.86,0,0,0,.35-1.49l-1.2-1a3.87,3.87,0,0,0,2.52-2.42,2.76,2.76,0,0,0-.82-3.2,2.59,2.59,0,0,0-2-.46,3,3,0,0,0-1.33.66c-1.1-2.19.76-4.32.85-4.42a.85.85,0,0,0,.22-.65.83.83,0,0,0-.33-.6,7.58,7.58,0,0,1-1.19-1.65,4.12,4.12,0,0,0,2.6-.77,2.32,2.32,0,0,0,.43-.5,6.28,6.28,0,0,0,2.55,5.34.87.87,0,0,0,1.18-.29,1.42,1.42,0,0,1,.32-.4c.31,0,1.15.91,1.78,1.56a22.47,22.47,0,0,0,4,3.55,6.37,6.37,0,0,0,3.57,1.19c3.1,0,5.42-2.62,6.41-4a31.45,31.45,0,0,0,6.62,3.11.73.73,0,0,0,.25,0c.3,1,.63,1.94,1,2.91,1.08,3.09,2.19,6.28,1.76,8.71-.57,3.14-5.54,3.17-8.1,2.74a5.51,5.51,0,0,0-4.75,1.33,5.68,5.68,0,0,0-1.7,4.68,2.48,2.48,0,0,0,1.24,2.09,4.54,4.54,0,0,0,3.55-.19,4.62,4.62,0,0,0,5.66.09,4.57,4.57,0,0,0,2.86,1.12h.1a6.07,6.07,0,0,0,3.56-1.34c3.34,1.35,5.24.35,5.58.14,2.71-2.28,2.26-6.39,1.91-8.17a11.73,11.73,0,0,0,7.43-6.74.85.85,0,0,0-.18-.87.88.88,0,0,0-.85-.25c-1.72.46-3.07.15-3.72-.86-.87-1.36-.31-3.6,1.44-5.69a16.06,16.06,0,0,0,1.06-1.43,58.72,58.72,0,0,0,11.86-4.41,88.17,88.17,0,0,1,10.5-4.22,18.7,18.7,0,0,1,3.25-.69c-.33,4.66,2.07,7.74,4.41,10.69.65.82,1.3,1.63,1.89,2.48,2.52,3.65,2,11.3,1.83,12a4.63,4.63,0,0,1-4.26,1.78,7.46,7.46,0,0,0-5.67,1.67,4.4,4.4,0,0,0-1.62,3.3,2,2,0,0,0,.92,1.8c1.25.74,3.31-.05,4.42-.58a5,5,0,0,0,3.07,1.09,5.74,5.74,0,0,0,3.08-1,5.5,5.5,0,0,0,6.08-.31,4.54,4.54,0,0,0,3.92.39,4.16,4.16,0,0,0,.78-.42.58.58,0,0,0,.1.12c.91.79,2.61.37,3.69,0a3,3,0,0,0,1.67,1.34c1.59.51,3.42-.36,4.34-.91a4.36,4.36,0,0,0,3.34,1.07,3.94,3.94,0,0,0,2.19-1.12,8.15,8.15,0,0,0,2.32,1.15,4.12,4.12,0,0,0,1.21.2,2.41,2.41,0,0,0,2.07-1c1-1.45.48-3.92-.63-5.3a5.25,5.25,0,0,1-.94-3.93,4.08,4.08,0,0,1,1.87-2.84c2.34-1.49,3.88-3.51,3.91-5.13a1.78,1.78,0,0,0-.72-1.57,3,3,0,0,0-1.36-.42c-1-.13-2.3-.3-3.92-3.3-1.45-2.67.27-7.85,2.08-13.33a90.08,90.08,0,0,0,2.79-9.61c1.66-8-2.35-14.44-3.81-16.44,4.05-4,5.74-7.79,5-11.35-.77-3.92-4.42-6.61-7.31-7.71-3.5-1.35-9.37-.65-15,0-4.42.53-8.6,1-11.11.5a3,3,0,0,1-2-1.23,3.64,3.64,0,0,1-.3-2.49.87.87,0,0,0-.16-.76.88.88,0,0,0-.71-.32,6,6,0,0,0-3.77,1.75,1.93,1.93,0,0,1,0-.72c.22-1.65,2.13-3.1,2.14-3.11a.88.88,0,0,0,.35-.73.89.89,0,0,0-.41-.7,7,7,0,0,0-8.46.93,3.84,3.84,0,0,1-1.1-2.82,3.09,3.09,0,0,1,1.67-2.73,2,2,0,0,1,1.67-.23,3.13,3.13,0,0,1,1.52,1.69.86.86,0,0,0,.52.5.83.83,0,0,0,.72-.07c1.92-1.12,2.53-3.47,2.73-4.77a4,4,0,0,1,2.61,1.45c1.76,2.21,1,6.11,1,6.15a.86.86,0,0,0,1.07,1,7,7,0,0,0,5.33-6.54c3,1.85,2.78,5.69,2.77,5.87a.86.86,0,0,0,1.18.85,5,5,0,0,0,2.65-2.38,14.79,14.79,0,0,0,6.66,4.84.88.88,0,0,0,.9-.23.85.85,0,0,0,.16-.91l-.84-2c.69.48,1.34,1,2,1.51a32.79,32.79,0,0,0,6.34,4.07c3,1.42,5.16,1.1,6.44.59a4.76,4.76,0,0,0,2.69-2.57A5.3,5.3,0,0,0,347.44,214.39Zm-1.34,4a3,3,0,0,1-1.73,1.58c-.95.39-2.61.61-5.06-.54a31.63,31.63,0,0,1-6-3.88,32.65,32.65,0,0,0-4.48-3.06.86.86,0,0,0-1.2,1.09l1,2.48a12.65,12.65,0,0,1-4.85-4.8.86.86,0,0,0-1.62.41,3.25,3.25,0,0,1-1,2.15,7.78,7.78,0,0,0-5-6.6.89.89,0,0,0-.83.14.86.86,0,0,0-.31.78c0,.17.43,4-2.83,5.67a9.19,9.19,0,0,0-1.53-6.07,6,6,0,0,0-4.7-2.19.78.78,0,0,0-.62.23.87.87,0,0,0-.28.61,6.87,6.87,0,0,1-1.27,3.67,4.24,4.24,0,0,0-2-1.67,3.62,3.62,0,0,0-3.09.32,4.79,4.79,0,0,0-2.58,4.2,5.39,5.39,0,0,0,2.44,4.75.87.87,0,0,0,1.09-.16c.12-.13,2.57-2.82,5.78-1.69a6.35,6.35,0,0,0-1.82,3.34,3.88,3.88,0,0,0,.84,3,.82.82,0,0,0,.7.33.85.85,0,0,0,.68-.36,6,6,0,0,1,2.33-1.82,4.66,4.66,0,0,0,.65,2.53,4.58,4.58,0,0,0,3.13,2c2.78.58,7.1.06,11.67-.48,5.46-.65,11.11-1.32,14.21-.14,2.48,1,5.61,3.21,6.24,6.44S343,237.25,339,241a.88.88,0,0,0-.07,1.19c.06.06,5.74,7,3.93,15.62a87.55,87.55,0,0,1-2.73,9.42c-2,6.1-3.77,11.37-2,14.69,2,3.77,4,4,5.21,4.19.23,0,.52.07.57.09.17.35-.44,2.17-3.1,3.86a5.76,5.76,0,0,0-2.65,4,7,7,0,0,0,1.29,5.29,3.24,3.24,0,0,1,.56,3.25c-.08.12-.34.49-1.35.17a5.59,5.59,0,0,1-2.29-1.28.89.89,0,0,0-.72-.28.87.87,0,0,0-.66.4,2.52,2.52,0,0,1-1.59,1.08,3.17,3.17,0,0,1-2.45-1.07.87.87,0,0,0-1.08-.07c-.54.38-2.31,1.38-3.39,1-.16-.05-.63-.2-.94-1.09a.87.87,0,0,0-1.17-.51,5.93,5.93,0,0,1-2.61.66,1,1,0,0,1,.06-.49c.6-2.06,3-2.55,4.63-2.87l.78-.17c.18-.05.38-.09.6-.13,1.58-.32,4.86-1,4.45-5.1a18.45,18.45,0,0,1,0-2.45c.07-2.54.15-4.94-3.85-7.82-1.48-1.06-2.9-2-4.27-2.93a52.49,52.49,0,0,1-8.25-6.35c-5.08-5.08-11.13-6.57-18-4.42a89.49,89.49,0,0,0-10.7,4.3,67.57,67.57,0,0,1-9.88,3.85c2.73-5.18,4.22-12,3.91-15.35a.86.86,0,1,0-1.72.16c.36,3.78-2,13.05-5.82,17.63-2.24,2.68-2.86,5.71-1.58,7.73a4.38,4.38,0,0,0,3.86,1.86,10,10,0,0,1-6.31,4.47.88.88,0,0,0-.55.41.83.83,0,0,0-.08.67c0,.05,1.43,5-1,7.14-.06,0-1.55.79-4.39-.51a.86.86,0,0,0-1,.17,4.59,4.59,0,0,1-2.87,1.22,3,3,0,0,1-2.21-1.1.87.87,0,0,0-1.19-.07c-.1.09-2.53,2.11-4.34.09a.86.86,0,0,0-1.05-.19c-.69.36-2,.76-2.51.46-.07,0-.29-.16-.34-.74a4,4,0,0,1,1.16-3.26,3.81,3.81,0,0,1,3.29-.88c4.51.75,9.37-.24,10.07-4.14.52-2.87-.67-6.28-1.82-9.58a25.89,25.89,0,0,1-1.8-7.13,38.93,38.93,0,0,1,.84-8.3.86.86,0,0,0-.64-1,.85.85,0,0,0-1,.65,40.06,40.06,0,0,0-.89,8.72,14,14,0,0,0,.41,2.77c-6.54-2.41-10.9-6.17-12.92-11.2a19.94,19.94,0,0,1,.84-15.87c2.69-5.19,6.33-8.15,9.26-10.54a26,26,0,0,0,3.49-3.18c-.09,1.43-1.31,4.31-2.63,6.61a.86.86,0,0,0,.07,1,.85.85,0,0,0,.93.28,25.29,25.29,0,0,0,3-1.38l.28,4.35a.86.86,0,0,0,1.4.61,22.64,22.64,0,0,0,3-3.18l.85,2.7a.84.84,0,0,0,.55.55.86.86,0,0,0,.76-.1,16.66,16.66,0,0,0,3.18-3.15l1.63,2.61a.83.83,0,0,0,.77.4.85.85,0,0,0,.73-.47l1.91-3.82,1.6,4.37a.85.85,0,0,0,.54.52.81.81,0,0,0,.27.05.94.94,0,0,0,.46-.13l4.22-2.66A19.86,19.86,0,0,0,287.6,249a.86.86,0,0,0,1-.93l-.34-3.59,3.73-.06a.84.84,0,0,0,.84-.75.87.87,0,0,0-.63-.94,7.84,7.84,0,0,1-2.14-1.87l.19,0c2.15.17,38.57,2.85,46.56-3,4.44-3.23,4.13-6.17,3.55-7.63-1.2-3-5.56-4.95-9.9-4.39-1.73.22-3.59.55-5.52.89-5.45,1-11.63,2.09-16.69.84a41.92,41.92,0,0,1-5.17-1.69c-2.53-1-4.36-1.65-5.76-.81a3,3,0,0,0-1.28,1.74,4.37,4.37,0,0,1-.58-5.31.86.86,0,0,0-.14-1c-.05-.05-5-5.41-2.69-11.28C294.73,204,303,201,312.37,202.2c8,1,16.45,7.18,22,11.27,3.5,2.57,5.39,3.91,6.67,4.08a.83.83,0,0,0,.69-.22.89.89,0,0,0,.28-.68,2.68,2.68,0,0,1,.59-1.8,1.93,1.93,0,0,1,1.58-.45,2.12,2.12,0,0,1,1.79.92A3.65,3.65,0,0,1,346.1,218.4ZM319,301.63a3.15,3.15,0,0,1-2.79-.58.87.87,0,0,0-1,.07c-.1.09-2.56,2.17-4.92.27a.86.86,0,0,0-1.1,0,3.56,3.56,0,0,1-4.88-.08.85.85,0,0,0-1-.12c-1.18.63-2.81,1.14-3.25.88-.07,0-.07-.27-.07-.32a2.71,2.71,0,0,1,1-2,5.75,5.75,0,0,1,4.31-1.26,6.17,6.17,0,0,0,6.07-2.81c.38-.89,1-9.29-2-13.64-.61-.88-1.28-1.73-2-2.58-2.28-2.87-4.42-5.6-4-9.76a15.09,15.09,0,0,1,11.28,4.83,41,41,0,0,0,5.59,4.55,6.75,6.75,0,0,0-2.09,3.78,2.6,2.6,0,0,0,.68,2,4.06,4.06,0,0,0,3.62,1.28,4.87,4.87,0,0,1,.54,0,19.16,19.16,0,0,1-1.75,2.64c-1.71,2.33-2.81,3.95-2.62,5.21a34.65,34.65,0,0,0,.79,3.4,25.41,25.41,0,0,1,.75,3.33A2,2,0,0,1,319,301.63Zm3.63-11.86c1.65-2.26,2.49-3.48,2-4.45a2.09,2.09,0,0,0-2.27-.92,2.45,2.45,0,0,1-2.26-.71.85.85,0,0,1-.24-.7,5.83,5.83,0,0,1,1.8-2.89l1.49,1c1.35.91,2.76,1.85,4.22,2.9,3.25,2.35,3.21,3.95,3.14,6.38a20.25,20.25,0,0,0,0,2.67c.24,2.39-1.12,2.85-3.07,3.24-.25,0-.48.09-.68.14l-.71.16a9.38,9.38,0,0,0-4.61,2c-.12-.46-.25-1-.42-1.64-.31-1.2-.64-2.45-.75-3.21S321.83,290.92,322.67,289.77Zm-87.21-16.06a1.82,1.82,0,0,0-1,.44,5.07,5.07,0,0,1-1.19-3.51c0-2.74-.78-4.1-1.27-4.69a3.08,3.08,0,0,0,.33-.55,2.62,2.62,0,0,0-.32-2.64,3.08,3.08,0,0,0,.23-2.19,3.48,3.48,0,0,0,.34-2.64,4.72,4.72,0,0,0,.68-1.23,82.67,82.67,0,0,0,9,8.36,18.16,18.16,0,0,0,.95,3.3A19.28,19.28,0,0,0,250,276.8c-1.47,2-4.21,4.57-7.61,2.31a21.48,21.48,0,0,1-3.71-3.31C237.44,274.52,236.54,273.59,235.46,273.71Zm-7.2,7.59a.87.87,0,0,0,.71.29.88.88,0,0,0,.66-.39,2,2,0,0,1,1-.81.88.88,0,0,1,.71.19,1.14,1.14,0,0,1,.17,1.23c-.35,1-1.42,1.57-2.89,1.51a.82.82,0,0,0-.84.54.85.85,0,0,0,.24,1l1.4,1.2-2.29.56a.88.88,0,0,0-.63.61,8.74,8.74,0,0,1-1,2.26,9.6,9.6,0,0,1-1-2.26.85.85,0,0,0-.62-.61l-2.29-.56,1.4-1.2a.87.87,0,0,0,.24-1,.84.84,0,0,0-.84-.54c-1.49.06-2.55-.5-2.89-1.5a1.18,1.18,0,0,1,.16-1.24.88.88,0,0,1,.71-.19,2,2,0,0,1,1.05.81.87.87,0,0,0,.66.39.93.93,0,0,0,.71-.29,5.44,5.44,0,0,0,.17-6.88,19.87,19.87,0,0,0,1.87-3.06.88.88,0,0,0-.14-.9,1,1,0,0,0-.91-.31c-.49.11-2,.42-2.83-.24a1.08,1.08,0,0,1-.14-1.26c.08-.14.32-.56,1.21-.22s2.07.68,2.83,0a1.32,1.32,0,0,0,.35-.53c.23,0,.46,0,.69.06a1.31,1.31,0,0,0,.32.47c.77.68,2,.33,2.83,0s1.14.08,1.22.22a1.08,1.08,0,0,1-.14,1.26c-.85.66-2.34.35-2.94.22a.87.87,0,0,0-.85.32.88.88,0,0,0-.09.91,21,21,0,0,0,1.86,3.07A5.44,5.44,0,0,0,228.26,281.3Zm2.79-24.2a.88.88,0,0,0-.22.93,1.75,1.75,0,0,1-.16,1.82.86.86,0,0,0-.14,1c.35.63-.22,1.42-.22,1.42a.85.85,0,0,0,0,1.08c.68.79.52,1.14.44,1.31a2.55,2.55,0,0,1-1.55,1.25,7.12,7.12,0,0,1-2.66.36h-.1a8,8,0,0,1-2.86-.61c-.38-.18-.87-.48-1-.87a.93.93,0,0,1,.15-.7.91.91,0,0,0,.16-.66.85.85,0,0,0-.37-.57c-.45-.3-.48-.56-.49-.65a1.55,1.55,0,0,1,.37-1,.88.88,0,0,0,.21-.66.9.9,0,0,0-.34-.6c-.27-.19-.7-.58-.7-1a1.39,1.39,0,0,1,.59-.87.89.89,0,0,0,.36-.71.94.94,0,0,0-.36-.72,1.79,1.79,0,0,1-.34-1.3,18,18,0,0,0,3.41.34h.2a15.46,15.46,0,0,0,6-1.13l.31.39A3.08,3.08,0,0,1,231.05,257.1Zm-5.74-3.05c-4.66,0-7.74-1.54-8.25-4a1.86,1.86,0,0,1,.4-1.76,3.54,3.54,0,0,1,2.55-.89,5.27,5.27,0,0,1,.68,0c.24,0,.28.11.3.14a3.17,3.17,0,0,1-.38,2,.85.85,0,0,0,.38,1.14c3.07,1.58,7.51.89,8.67.36a1.12,1.12,0,0,0,.68-.72,1.54,1.54,0,0,0-.14-1,1.68,1.68,0,0,1,.19-1.94c.33-.44,1.05-.24,1.26-.16a3.06,3.06,0,0,1,2.07,2.79,2.56,2.56,0,0,1-.87,1.83C231.44,253.26,228.6,254,225.31,254.05Zm3.16-4.4a11.69,11.69,0,0,1-6-.17,3.62,3.62,0,0,0,0-2.71l-.08-.11-.19-27.08c.22-16.07,7.64-21.94,11.12-23.81-1.56,4.87-4.64,18.6-4.52,50.89A3.37,3.37,0,0,0,228.47,249.65Zm23.47-14.58-.9,2a6.55,6.55,0,0,1-1.36-2.22.85.85,0,0,0-1-.51l-3.21.85.73-1.8a.84.84,0,0,0-.1-.84.86.86,0,0,0-.78-.34l-3.89.39,1.44-3.93a62.31,62.31,0,0,0,10.34,2.11l-.63.79a.87.87,0,0,0-.06,1,.86.86,0,0,0,.92.38,26.93,26.93,0,0,1,7.81-.61.89.89,0,0,0,.88-.44.86.86,0,0,0-.1-1c-1.84-2.13-6.78-8.06-7.56-9.95a.86.86,0,0,0-1.64.19l-.43,2.75a8.37,8.37,0,0,1-2.27-2.2.87.87,0,0,0-.94-.34.88.88,0,0,0-.63.79c0,.08,0,.42,0,.87-2.22-2-5.78-5.57-6.93-9.22-.65-2-.6-3.54.14-4.35a2.59,2.59,0,0,1,2.3-.67,2.47,2.47,0,0,1,1.53,1.14,2.29,2.29,0,0,1,.3,1.82.87.87,0,0,0,.88,1.08c2.17-.11,13.08-.83,14.84-4.4a2.56,2.56,0,0,0,.06-2.15c1.15-.66,4-1.64,7.7,1.67a.86.86,0,0,0,1.08.05,4.76,4.76,0,0,0,2-4,6.82,6.82,0,0,1,5,3.29.89.89,0,0,0,.64.4.86.86,0,0,0,.71-.26,9.62,9.62,0,0,0,2-3.36,9.31,9.31,0,0,1,5.06,3.51.87.87,0,0,0,.61.33,8.49,8.49,0,0,0,2.59-.35c-4.35,3.5-11.41,4.22-11.5,4.23a.86.86,0,0,0-.59,1.4l1.23,1.49c-4.86.09-7-1.66-7-1.68a.89.89,0,0,0-1.11,0,.88.88,0,0,0-.22,1.09l1.07,2a21.38,21.38,0,0,1-5.14-2c-1.85-.94-3.32-1.68-4.6-1.3a2.68,2.68,0,0,0-1.82,2.26,3,3,0,0,0,1.28,3,2.94,2.94,0,0,0,1.63.49,3.24,3.24,0,0,0,2.25-.94,3.09,3.09,0,0,0,.92-1.76,17.28,17.28,0,0,0,7,2.21.81.81,0,0,0,.76-.4.85.85,0,0,0,0-.87l-.56-1a17.4,17.4,0,0,0,7.35.66.89.89,0,0,0,.71-.53.88.88,0,0,0-.13-.88l-1.32-1.6c2.7-.45,8.25-1.76,11.75-5.15A7.65,7.65,0,0,1,288,212.3a.86.86,0,0,0-.42.58.87.87,0,0,0,.18.7s2.81,3.67,1.94,13.17a14.61,14.61,0,0,1-6.38-6.27.86.86,0,0,0-1.63.47,26.92,26.92,0,0,1,.11,4.15,8.43,8.43,0,0,1-2.77-2.94.86.86,0,0,0-1.63.15c-.21.94-.5,2-.74,2.76a7.43,7.43,0,0,1-2.47-2.25.86.86,0,0,0-1.61.36c-.06,1-.19,2.53-.36,3.59a19.21,19.21,0,0,1-2.73-2,.87.87,0,0,0-.82-.19.88.88,0,0,0-.59.61l-.44,1.68a9.46,9.46,0,0,1-2.43-1.93.86.86,0,0,0-1.21-.13.85.85,0,0,0-.12,1.21,12.65,12.65,0,0,0,4,2.9.88.88,0,0,0,.73,0,.84.84,0,0,0,.46-.56l.38-1.43a29.68,29.68,0,0,0,3,1.9.9.9,0,0,0,.7,0,.85.85,0,0,0,.51-.49,14.06,14.06,0,0,0,.54-3.07,14,14,0,0,0,2.58,1.73.86.86,0,0,0,1.12-.33,11.59,11.59,0,0,0,.78-2.18,14.66,14.66,0,0,0,3.37,2.7.81.81,0,0,0,.71.06.83.83,0,0,0,.52-.5,9.11,9.11,0,0,0,.35-2.82,16.94,16.94,0,0,0,4.88,4s0,0,0,.06a43.67,43.67,0,0,0,.69,5.33,17.82,17.82,0,0,1-5.91-3.65.87.87,0,0,0-1.39.3l-.66,1.64-2.77-2a.86.86,0,0,0-1.36.59l-.25,1.92a13.11,13.11,0,0,1-1.84-1.59.86.86,0,0,0-1.21-.08.87.87,0,0,0-.08,1.22,17,17,0,0,0,3.36,2.67.83.83,0,0,0,.82,0,.85.85,0,0,0,.48-.66l.24-1.87,2.49,1.81a.86.86,0,0,0,1.3-.37l.62-1.54a19.25,19.25,0,0,0,4.47,2.74,10.93,10.93,0,0,0,1.05,4.62,15.49,15.49,0,0,1-6.34-1.47.86.86,0,0,0-1.11.3L279.81,240l-5.16-3.45a.85.85,0,0,0-.74-.11.91.91,0,0,0-.55.52l-.79,2.16c-.95-1.06-2.31-2.56-2.81-3a.85.85,0,0,0-1.17.09,19.15,19.15,0,0,1-2.66,2.3l-1-2.67a.87.87,0,0,0-1.11-.5.86.86,0,0,0-.51,1.1l1.37,3.66a.83.83,0,0,0,.51.51.84.84,0,0,0,.71,0,17.39,17.39,0,0,0,3.33-2.56c.8.82,2.14,2.32,3,3.3a.86.86,0,0,0,1.46-.27l.91-2.48,5,3.33a.87.87,0,0,0,.48.15l.18,0a.91.91,0,0,0,.55-.37l1.31-2a17.27,17.27,0,0,0,6,1.3.85.85,0,0,0,.18.59c.21.25.64.76,1.16,1.28l-2.15,0a.84.84,0,0,0-.63.28.89.89,0,0,0-.22.66l.32,3.37a14.67,14.67,0,0,1-4.3-1.59.85.85,0,0,0-.93,0l-3.76,2.38-1.93-5.25a.86.86,0,0,0-.76-.56.83.83,0,0,0-.82.48l-2.11,4.22-1.48-2.36a.85.85,0,0,0-.71-.4.88.88,0,0,0-.72.36,23,23,0,0,1-2.59,3l-1-3.1a.87.87,0,0,0-.7-.59.85.85,0,0,0-.83.36,29.74,29.74,0,0,1-2.42,3l-.24-3.84a.85.85,0,0,0-.45-.69.83.83,0,0,0-.82,0c-.37.2-1.06.56-1.77.91,1-2.1,2.16-5,1.51-6.58a1.84,1.84,0,0,0-1-.94l-.08-.06-.12,0-.08,0h-.15a3,3,0,0,0-2.42.42,3.09,3.09,0,0,0-1,1.24,7,7,0,0,1-1.6-2.28.86.86,0,0,0-1.58,0Zm-6.54-9.61c4.65,2.25,10.37,2.49,11.93,2.52.75.93,1.48,1.82,2.06,2.52a27.1,27.1,0,0,0-4,.34l.2-.26a.87.87,0,0,0,.12-.89.88.88,0,0,0-.74-.51,58.39,58.39,0,0,1-12.34-2.4h0c-1-.29-1.52-.78-1.58-1.39a1.05,1.05,0,0,1,.38-.94C242.31,224,244.27,224.91,245.4,225.46Zm8.13.49a.92.92,0,0,0,.36-.56l.25-1.61c.52.75,1.14,1.58,1.79,2.42C255.26,226.15,254.44,226.07,253.53,226ZM252,225.7q-.63-.1-1.29-.27a.81.81,0,0,0-.07-.55l-.07-.16A9.71,9.71,0,0,0,252,225.7Zm11.35-9.39a1.35,1.35,0,0,1-1.72.25,1.34,1.34,0,0,1-.53-1.32,1,1,0,0,1,.61-.87,1,1,0,0,1,.25,0,4.61,4.61,0,0,1,1.67.52h0A1.16,1.16,0,0,1,263.36,216.31Zm32.73,12.88a.87.87,0,0,0,.83.06.9.9,0,0,0,.49-.67q.21-1.64.78-2c.69-.41,2.35.22,4.27,1a47,47,0,0,0,5.36,1.75c5.42,1.33,11.79.19,17.41-.82,1.9-.34,3.73-.66,5.43-.88,3.56-.46,7.18,1,8.09,3.32.68,1.72-.37,3.71-3,5.6-7.19,5.23-41.65,2.91-45.16,2.66-.94-.89-1.3-2.71-1.41-3.91.57.18,1,.27,1,.28l.17,0a.87.87,0,0,0,.81-1.16,27.21,27.21,0,0,1-.95-5.56.83.83,0,0,0,.67-.08.87.87,0,0,0,.4-.63c1-8.65-.76-13.16-1.69-14.85a6.84,6.84,0,0,0,.64-.55,14.5,14.5,0,0,0,3.4,8.54A6.27,6.27,0,0,0,296.09,229.19Z"/><path class="cls-3" d="M209.76,184.87c-.34-6.93-2-18.15-7.25-18.4a5.45,5.45,0,0,0-4.48,1.76.87.87,0,0,1-.74.34l-2-.12.36,1.33a.87.87,0,0,1-.28.89c-.12.1-3,2.57-1.23,5.71,1.32,2.4,5.58,3.53,8.69,4.36a20.68,20.68,0,0,1,3.36,1.07A10.71,10.71,0,0,1,209.76,184.87Z"/><path class="cls-7" d="M202.6,164.75a7.32,7.32,0,0,0-5.62,2.08l-2.79-.17a.86.86,0,0,0-.72.32.84.84,0,0,0-.16.76l.53,2a6.25,6.25,0,0,0-1.22,7.48c1.67,3,6.34,4.29,9.75,5.19a20.27,20.27,0,0,1,3.06,1,11,11,0,0,1,4.48,5,.86.86,0,0,0,.77.49l.19,0a.87.87,0,0,0,.67-.84C211.55,187.06,211.66,165.19,202.6,164.75Zm.22,16c-3.11-.83-7.37-2-8.69-4.36-1.73-3.14,1.11-5.61,1.23-5.72a.84.84,0,0,0,.28-.88l-.36-1.33,2,.12a.87.87,0,0,0,.74-.34,5.41,5.41,0,0,1,4.48-1.76c5.26.25,6.91,11.47,7.24,18.4a10.58,10.58,0,0,0-3.57-3.06A21,21,0,0,0,202.82,180.74Z"/><path class="cls-3" d="M353.63,184.87c.34-6.93,2-18.15,7.25-18.4a5.45,5.45,0,0,1,4.48,1.76.87.87,0,0,0,.74.34l2-.12-.36,1.33a.88.88,0,0,0,.27.89c.13.1,3,2.57,1.24,5.71-1.32,2.4-5.58,3.53-8.69,4.36a21.18,21.18,0,0,0-3.37,1.07A10.78,10.78,0,0,0,353.63,184.87Z"/><path class="cls-7" d="M351.84,188a.87.87,0,0,0,.68.83l.18,0a.86.86,0,0,0,.78-.49,10.94,10.94,0,0,1,4.48-5,19.51,19.51,0,0,1,3.05-1c3.42-.91,8.09-2.16,9.76-5.2a6.26,6.26,0,0,0-1.22-7.48l.53-2a.88.88,0,0,0-.16-.77.87.87,0,0,0-.72-.32l-2.79.17a7.32,7.32,0,0,0-5.62-2.08C351.73,165.19,351.84,187.06,351.84,188Zm5.37-6.19a10.71,10.71,0,0,0-3.58,3.06c.34-6.93,2-18.15,7.25-18.4a5.41,5.41,0,0,1,4.48,1.76.9.9,0,0,0,.74.34l2-.12-.36,1.33a.86.86,0,0,0,.27.88c.13.11,3,2.58,1.24,5.72-1.32,2.4-5.58,3.53-8.69,4.36A20.68,20.68,0,0,0,357.21,181.81Z"/><path class="cls-3" d="M353.63,313.06c.34,6.93,2,18.15,7.25,18.4a5.41,5.41,0,0,0,4.48-1.76.9.9,0,0,1,.74-.34l2,.12-.36-1.33a.86.86,0,0,1,.27-.88c.13-.11,3-2.58,1.24-5.72-1.32-2.4-5.58-3.53-8.69-4.36a21.18,21.18,0,0,1-3.37-1.07A10.78,10.78,0,0,1,353.63,313.06Z"/><path class="cls-7" d="M360.79,333.18a7.32,7.32,0,0,0,5.62-2.08l2.79.17a.87.87,0,0,0,.72-.32.84.84,0,0,0,.16-.76l-.53-2a6.25,6.25,0,0,0,1.22-7.48c-1.67-3-6.34-4.28-9.75-5.19a21.73,21.73,0,0,1-3.06-.95,11,11,0,0,1-4.48-5,.85.85,0,0,0-.77-.5.58.58,0,0,0-.19,0,.85.85,0,0,0-.67.83C351.84,310.87,351.73,332.74,360.79,333.18Zm-.22-16c3.11.83,7.37,2,8.69,4.36,1.73,3.14-1.11,5.61-1.23,5.72a.84.84,0,0,0-.28.88l.36,1.33-2-.12a.9.9,0,0,0-.74.34,5.44,5.44,0,0,1-4.48,1.77c-5.27-.26-6.91-11.48-7.25-18.41a10.71,10.71,0,0,0,3.58,3.06A20.68,20.68,0,0,0,360.57,317.19Z"/><path class="cls-3" d="M209.76,313.06c-.34,6.93-2,18.15-7.25,18.4A5.41,5.41,0,0,1,198,329.7a.9.9,0,0,0-.74-.34l-2,.12.36-1.33a.84.84,0,0,0-.28-.88c-.12-.11-3-2.58-1.23-5.72,1.32-2.4,5.58-3.53,8.69-4.36a20.68,20.68,0,0,0,3.36-1.07A10.71,10.71,0,0,0,209.76,313.06Z"/><path class="cls-7" d="M211.54,309.94a.87.87,0,0,0-.67-.84l-.19,0a.86.86,0,0,0-.77.49,11.06,11.06,0,0,1-4.48,5,20.27,20.27,0,0,1-3.06,1c-3.41.9-8.08,2.15-9.75,5.19a6.25,6.25,0,0,0,1.22,7.48l-.53,2a.84.84,0,0,0,.16.76.86.86,0,0,0,.72.32l2.79-.17a7.32,7.32,0,0,0,5.62,2.08C211.66,332.74,211.55,310.87,211.54,309.94Zm-5.36,6.18a10.58,10.58,0,0,0,3.57-3.06c-.33,6.94-2,18.15-7.24,18.41A5.44,5.44,0,0,1,198,329.7a.9.9,0,0,0-.74-.34l-2,.12.36-1.33a.84.84,0,0,0-.28-.88c-.12-.11-3-2.57-1.23-5.72,1.32-2.4,5.58-3.53,8.69-4.36A21,21,0,0,0,206.18,316.12Z"/><path class="cls-8" d="M395,213.82H68v-66a5.64,5.64,0,0,1,5.64-5.65H389.36a5.64,5.64,0,0,1,5.64,5.65v66Z"/><path class="cls-9" d="M389.36,357H73.64A5.64,5.64,0,0,1,68,351.38v-66H395v66A5.65,5.65,0,0,1,389.36,357Z"/><rect class="cls-10" x="68" y="213.81" width="327" height="71.6"/><path class="cls-11" d="M231.5,280a30.39,30.39,0,1,1,30.3-30.38A30.37,30.37,0,0,1,231.5,280Zm0-55.11a24.73,24.73,0,1,0,24.67,24.73A24.73,24.73,0,0,0,231.5,224.89Z"/><ellipse class="cls-11" cx="231.5" cy="249.62" rx="3.44" ry="3.44"/><polygon class="cls-11" points="231.5 250.14 222.77 251.02 204.01 250.14 204.01 249.1 222.77 248.22 231.5 249.1 231.5 250.14"/><polygon class="cls-11" points="231.5 250.14 240.23 251.02 258.98 250.14 258.98 249.1 240.23 248.22 231.5 249.1 231.5 250.14"/><polygon class="cls-11" points="230.98 249.62 230.1 240.86 230.98 222.06 232.01 222.06 232.9 240.86 232.01 249.62 230.98 249.62"/><polygon class="cls-11" points="230.98 249.62 230.1 258.37 230.98 277.18 232.01 277.18 232.9 258.37 232.01 249.62 230.98 249.62"/><polygon class="cls-11" points="231.14 249.98 224.34 244.42 211.7 230.5 212.43 229.77 226.31 242.44 231.86 249.25 231.14 249.98"/><polygon class="cls-11" points="231.14 249.98 236.69 256.8 250.57 269.47 251.3 268.74 238.66 254.82 231.86 249.25 231.14 249.98"/><polygon class="cls-11" points="231.14 249.25 236.69 242.44 250.57 229.77 251.3 230.5 238.66 244.42 231.86 249.98 231.14 249.25"/><polygon class="cls-11" points="231.14 249.25 224.34 254.82 211.7 268.74 212.43 269.47 226.31 256.8 231.86 249.98 231.14 249.25"/><polygon class="cls-11" points="231.7 250.1 223.97 254.26 206.31 260.64 205.91 259.69 222.9 251.68 231.3 249.14 231.7 250.1"/><polygon class="cls-11" points="231.7 250.1 240.1 247.56 257.09 239.55 256.69 238.59 239.03 244.97 231.3 249.14 231.7 250.1"/><polygon class="cls-11" points="231.02 249.82 226.87 242.07 220.51 224.36 221.46 223.96 229.45 241 231.98 249.42 231.02 249.82"/><polygon class="cls-11" points="231.02 249.82 233.55 258.24 241.54 275.28 242.49 274.88 236.13 257.17 231.98 249.42 231.02 249.82"/><polygon class="cls-11" points="231.3 250.1 222.9 247.56 205.91 239.55 206.31 238.59 223.97 244.97 231.7 249.14 231.3 250.1"/><polygon class="cls-11" points="231.3 250.1 239.03 254.26 256.69 260.64 257.09 259.69 240.1 251.68 231.7 249.14 231.3 250.1"/><polygon class="cls-11" points="231.02 249.42 233.55 241 241.54 223.96 242.49 224.36 236.13 242.07 231.98 249.82 231.02 249.42"/><polygon class="cls-11" points="231.02 249.42 226.87 257.17 220.51 274.88 221.46 275.28 229.45 258.24 231.98 249.82 231.02 249.42"/><ellipse class="cls-10" cx="231.5" cy="249.62" rx="4.63" ry="4.65"/><ellipse class="cls-11" cx="231.5" cy="249.62" rx="2.78" ry="2.79"/></svg>