<svg id="Layer_1" data-name="Layer 1" xmlns="http://www.w3.org/2000/svg" xmlns:xlink="http://www.w3.org/1999/xlink" viewBox="0 0 519.54 499.56"><defs><style>.cls-1{fill:url(#linear-gradient);}.cls-2{fill:#fff;}.cls-3{fill:#41479b;}.cls-4{fill:#f5f5f5;}.cls-5{fill:#ff4b55;}</style><linearGradient id="linear-gradient" x1="103.6" y1="205.89" x2="525.32" y2="300.09" gradientUnits="userSpaceOnUse"><stop offset="0.43" stop-color="#41479b"/><stop offset="0.55" stop-color="#3850a6"/><stop offset="0.77" stop-color="#206ac3"/><stop offset="1" stop-color="#008be9"/></linearGradient></defs><title>Artboard 1 copy 15</title><path class="cls-1" d="M386,372.63c-41.89,47.45-92.5,80-142.31,95.38,40.91-14.85,81.46-42.17,115.36-80.56,84-95.17,95.44-222.41,25.46-284.2S189.64,68.51,105.61,163.68c-44.1,49.94-68.18,108.7-71,162.21C34.94,264,62.54,193.4,115.31,133.64c93-105.33,229-137.23,303.75-71.23S479,267.3,386,372.63Z"/><ellipse class="cls-2" cx="231.54" cy="277.53" rx="232.41" ry="168.77" transform="translate(-129.81 269.55) rotate(-48.9)"/><path class="cls-3" d="M388.09,355H74.6a5.6,5.6,0,0,1-5.6-5.6V147.87a5.6,5.6,0,0,1,5.6-5.59H388.09a5.59,5.59,0,0,1,5.59,5.59V349.4A5.6,5.6,0,0,1,388.09,355Z"/><path class="cls-4" d="M225.74,142.28H216l-51.85,34v-34h-28v34l-51.86-34H74.6a5.6,5.6,0,0,0-5.6,5.59v4.44l44.49,29.15H69v28h44.49L69,238.6V243a5.6,5.6,0,0,0,5.6,5.6h9.72l51.86-34v34h28v-34l51.85,34h9.72a5.6,5.6,0,0,0,5.6-5.6V238.6l-44.49-29.15h44.49v-28H186.85l44.49-29.14v-4.45A5.6,5.6,0,0,0,225.74,142.28Z"/><polygon class="cls-5" points="231.34 187.06 158.57 187.06 158.57 142.28 141.77 142.28 141.77 187.06 69 187.06 69 203.85 141.77 203.85 141.77 248.64 158.57 248.64 158.57 203.85 231.34 203.85 231.34 187.06"/><path class="cls-5" d="M130.58,181.46,71.67,143.22A5.5,5.5,0,0,0,69,147.87v.29l51.3,33.3Z"/><path class="cls-5" d="M174.45,181.46l56-36.38a5.52,5.52,0,0,0-4.75-2.8h-1.21l-60.36,39.18Z"/><path class="cls-5" d="M125.74,209.45,69.8,245.76a5.54,5.54,0,0,0,4.8,2.88h1.05L136,209.45Z"/><path class="cls-5" d="M231.25,243.48l-52.42-34H168.55l59.53,38.64A5.53,5.53,0,0,0,231.25,243.48Z"/><path class="cls-5" d="M319.79,319.73a1.16,1.16,0,0,1-.65-.2l-6.63-4.74-6.62,4.74a1.21,1.21,0,0,1-.65.2,1.1,1.1,0,0,1-.66-.21,1.12,1.12,0,0,1-.41-1.25l2.45-7.76-6.54-4.83a1.14,1.14,0,0,1-.41-1.25,1.12,1.12,0,0,1,1.06-.77l8.15-.07,2.57-7.72a1.12,1.12,0,0,1,1.06-.77,1.13,1.13,0,0,1,1.07.77l2.57,7.72,8.15.07a1.1,1.1,0,0,1,1.05.77,1.12,1.12,0,0,1-.4,1.25l-6.55,4.83,2.46,7.76a1.14,1.14,0,0,1-.41,1.25A1.15,1.15,0,0,1,319.79,319.73Z"/><path class="cls-4" d="M312.51,296.22l2.83,8.48,8.94.07-7.19,5.32,2.7,8.52-7.28-5.2-7.27,5.2,2.69-8.52-7.19-5.32,8.94-.06,2.83-8.49m0-2.24a2.24,2.24,0,0,0-2.12,1.53l-2.32,7-7.35.06a2.24,2.24,0,0,0-1.31,4l5.91,4.36-2.22,7a2.24,2.24,0,0,0,3.44,2.49l6-4.27,6,4.27a2.21,2.21,0,0,0,1.3.42,2.3,2.3,0,0,0,1.32-.42,2.26,2.26,0,0,0,.81-2.49l-2.21-7,5.91-4.36a2.25,2.25,0,0,0,.79-2.5,2.22,2.22,0,0,0-2.11-1.54l-7.34-.06-2.32-7a2.25,2.25,0,0,0-2.13-1.53Z"/><path class="cls-5" d="M319.79,229.48a1.1,1.1,0,0,1-.65-.21l-6.63-4.73-6.62,4.74a1.21,1.21,0,0,1-.65.2,1.12,1.12,0,0,1-1.07-1.46l2.45-7.76-6.54-4.84a1.12,1.12,0,0,1,.65-2l8.15-.06,2.57-7.72a1.12,1.12,0,0,1,1.06-.77,1.13,1.13,0,0,1,1.07.77l2.57,7.72,8.15.06a1.13,1.13,0,0,1,1.05.78,1.11,1.11,0,0,1-.4,1.24l-6.55,4.84,2.46,7.76a1.14,1.14,0,0,1-.41,1.25A1.15,1.15,0,0,1,319.79,229.48Z"/><path class="cls-4" d="M312.51,206l2.83,8.48,8.94.07-7.19,5.31,2.7,8.53-7.28-5.2-7.27,5.2,2.69-8.53-7.19-5.31,8.94-.07,2.83-8.48m0-2.24a2.24,2.24,0,0,0-2.12,1.53l-2.32,7-7.35.05a2.24,2.24,0,0,0-1.31,4l5.91,4.37-2.22,7a2.23,2.23,0,0,0,.82,2.48,2.19,2.19,0,0,0,1.32.43,2.24,2.24,0,0,0,1.3-.42l6-4.27,6,4.27a2.21,2.21,0,0,0,1.3.42,2.23,2.23,0,0,0,2.13-2.91l-2.21-7,5.91-4.37a2.24,2.24,0,0,0-1.32-4l-7.34-.05-2.32-7a2.25,2.25,0,0,0-2.13-1.53Z"/><path class="cls-5" d="M359,257.47a1.12,1.12,0,0,1-.65-.21l-6.62-4.73-6.63,4.73a1.1,1.1,0,0,1-.65.21,1.12,1.12,0,0,1-1.07-1.46l2.46-7.76-6.55-4.84a1.11,1.11,0,0,1-.4-1.24,1.13,1.13,0,0,1,1.06-.78l8.14-.06,2.58-7.73a1.12,1.12,0,0,1,2.12,0l2.58,7.73,8.14.06a1.14,1.14,0,0,1,1.06.78,1.11,1.11,0,0,1-.4,1.24l-6.55,4.84,2.46,7.76a1.14,1.14,0,0,1-.41,1.25A1.18,1.18,0,0,1,359,257.47Z"/><path class="cls-4" d="M351.7,234l2.83,8.48,8.94.07-7.19,5.31,2.69,8.53-7.27-5.2-7.28,5.2,2.7-8.53-7.19-5.31,8.94-.07L351.7,234m0-2.24a2.26,2.26,0,0,0-2.13,1.53l-2.32,7-7.34.05a2.24,2.24,0,0,0-1.31,4l5.9,4.37-2.21,7a2.23,2.23,0,0,0,.82,2.48,2.22,2.22,0,0,0,2.61,0l6-4.27,6,4.27a2.24,2.24,0,0,0,1.3.42,2.19,2.19,0,0,0,1.32-.43,2.23,2.23,0,0,0,.82-2.48l-2.21-7,5.9-4.37a2.24,2.24,0,0,0-1.31-4l-7.34-.05-2.33-7a2.24,2.24,0,0,0-2.12-1.53Z"/><path class="cls-5" d="M280.6,268.67a1.12,1.12,0,0,1-.65-.21l-6.62-4.74-6.63,4.74a1.11,1.11,0,0,1-1.31,0,1.12,1.12,0,0,1-.41-1.24l2.46-7.76-6.55-4.84a1.12,1.12,0,0,1,.66-2l8.14-.06,2.58-7.73a1.12,1.12,0,0,1,2.12,0l2.58,7.73,8.14.06a1.12,1.12,0,0,1,1.06.77,1.14,1.14,0,0,1-.4,1.25l-6.55,4.84,2.46,7.76a1.13,1.13,0,0,1-.42,1.24A1.07,1.07,0,0,1,280.6,268.67Z"/><path class="cls-4" d="M273.33,245.15l2.83,8.49,8.94.07L277.9,259l2.7,8.53-7.27-5.2-7.28,5.2,2.7-8.53-7.2-5.31,8.95-.07,2.83-8.49m0-2.23a2.24,2.24,0,0,0-2.13,1.53l-2.32,7-7.34.06a2.24,2.24,0,0,0-1.32,4l5.91,4.36-2.21,7a2.26,2.26,0,0,0,.81,2.49,2.31,2.31,0,0,0,1.32.43,2.21,2.21,0,0,0,1.3-.42l6-4.27,6,4.27a2.24,2.24,0,0,0,1.3.42,2.29,2.29,0,0,0,1.32-.43,2.25,2.25,0,0,0,.82-2.49l-2.22-7,5.91-4.36a2.24,2.24,0,0,0-1.31-4l-7.35-.06-2.32-7a2.22,2.22,0,0,0-2.12-1.53Z"/></svg>