<svg id="Layer_1" data-name="Layer 1" xmlns="http://www.w3.org/2000/svg" xmlns:xlink="http://www.w3.org/1999/xlink" viewBox="0 0 519.54 499.56"><defs><style>.cls-1{fill:url(#linear-gradient);}.cls-2{fill:#fff;}.cls-3{fill:#2c6a33;}.cls-4{fill:#f5f5f5;}</style><linearGradient id="linear-gradient" x1="103.6" y1="205.89" x2="525.32" y2="300.09" gradientUnits="userSpaceOnUse"><stop offset="0" stop-color="#00a437"/><stop offset="0.16" stop-color="#0ba532"/><stop offset="0.44" stop-color="#28a824"/><stop offset="0.8" stop-color="#56ac0e"/><stop offset="1" stop-color="#73af00"/></linearGradient></defs><title>Artboard 1 copy 14</title><path class="cls-1" d="M386,372.63c-41.89,47.45-92.5,80-142.31,95.38,40.91-14.85,81.46-42.17,115.36-80.56,84-95.17,95.44-222.41,25.46-284.2S189.64,68.51,105.61,163.68c-44.1,49.94-68.18,108.7-71,162.21C34.94,264,62.54,193.4,115.31,133.64c93-105.33,229-137.23,303.75-71.23S479,267.3,386,372.63Z"/><ellipse class="cls-2" cx="231.54" cy="277.53" rx="232.41" ry="168.77" transform="translate(-129.81 269.55) rotate(-48.9)"/><path class="cls-3" d="M388.4,355.21H153.05V142.28H388.4a5.6,5.6,0,0,1,5.6,5.6V349.6A5.61,5.61,0,0,1,388.4,355.21Z"/><path class="cls-4" d="M153.05,355.21H74.6A5.61,5.61,0,0,1,69,349.6V147.88a5.6,5.6,0,0,1,5.6-5.6h78.45Z"/><path class="cls-4" d="M330.56,278.06a62.54,62.54,0,0,1-83-93.58l.12-.1a.72.72,0,0,0-.74-1.22,68.24,68.24,0,1,0,84.76,95.75.72.72,0,0,0-1.12-.88Z"/><path class="cls-4" d="M297.38,195.8l9,10,12.42-5.22a1.81,1.81,0,0,1,2.27,2.58l-6.79,11.64L323,225a1.81,1.81,0,0,1-1.76,3l-13.16-2.87-7,11.53a1.82,1.82,0,0,1-3.36-.76l-1.34-13.41-13.12-3.07A1.81,1.81,0,0,1,283,216l12.33-5.41-1.13-13.42A1.81,1.81,0,0,1,297.38,195.8Z"/></svg>