<svg id="Layer_1" data-name="Layer 1" xmlns="http://www.w3.org/2000/svg" xmlns:xlink="http://www.w3.org/1999/xlink" viewBox="0 0 519.54 499.56"><defs><style>.cls-1{fill:url(#linear-gradient);}.cls-2{fill:#fff;}.cls-3{fill:#464655;}.cls-4{fill:#ff4b55;}.cls-5{fill:#41479b;}.cls-6{fill:#73af00;}.cls-7{fill:#f5f5f5;}.cls-8{fill:#ffe15a;}</style><linearGradient id="linear-gradient" x1="94.19" y1="248.03" x2="526.3" y2="248.03" gradientUnits="userSpaceOnUse"><stop offset="0" stop-color="#73af00"/><stop offset="1" stop-color="#e2e15a"/></linearGradient></defs><title>Artboard 1 copy 7</title><path class="cls-1" d="M386,372.63c-41.89,47.45-92.5,80-142.31,95.38,40.91-14.85,81.46-42.17,115.36-80.56,84-95.17,95.44-222.41,25.46-284.2S189.64,68.51,105.61,163.68c-44.1,49.94-68.18,108.7-71,162.21C34.94,264,62.54,193.4,115.31,133.64c93-105.33,229-137.23,303.75-71.23S479,267.3,386,372.63Z"/><ellipse class="cls-2" cx="231.54" cy="277.53" rx="232.41" ry="168.77" transform="translate(-129.81 269.55) rotate(-48.9)"/><polygon class="cls-3" points="69 181.5 69 315.98 158.66 248.74 69 181.5"/><path class="cls-4" d="M113.83,142.28l100.86,78.44H394V147.88a5.61,5.61,0,0,0-5.6-5.61H113.83Z"/><path class="cls-5" d="M113.83,355.21l100.86-78.45H394V349.6a5.61,5.61,0,0,1-5.6,5.61Z"/><path class="cls-6" d="M105.11,142.28H74.6a5.6,5.6,0,0,0-5.6,5.6v23l98.37,77.88L69,326.62v23a5.61,5.61,0,0,0,5.6,5.61h30.51l106.17-84.06H394V226.33H211.28Z"/><polygon class="cls-7" points="123.17 142.28 105.11 142.28 211.28 226.33 394 226.33 394 215.12 215.18 215.12 123.17 142.28"/><polygon class="cls-8" points="69 170.86 69 185.16 149.32 248.74 69 312.33 69 326.62 167.37 248.74 69 170.86"/><polygon class="cls-7" points="211.28 271.15 105.11 355.21 123.16 355.21 215.18 282.36 394 282.36 394 271.15 211.28 271.15"/></svg>